<?xml version="1.0" standalone="no"?>
<!DOCTYPE svg PUBLIC "-//W3C//DTD SVG 1.1//EN" "http://www.w3.org/Graphics/SVG/1.1/DTD/svg11.dtd">
<svg xmlns="http://www.w3.org/2000/svg">
<metadata>Alfred Kärcher GmbH & Co. KG</metadata>
<defs>
<font id="kaercher_system_icons" horiz-adv-x="1000" >
<font-face font-family="kaercher_system_icons" font-weight="400" font-stretch="normal" units-per-em="1000" ascent="850" descent="-150" />
<missing-glyph horiz-adv-x="1000" />
<glyph glyph-name="a_001_information" unicode="&#xe800;" d="M595-150h-189v762h189v-762z m0 912c0 48-43 88-95 88-52 0-94-40-94-88 0-49 42-89 94-89 52 0 95 40 95 89z" horiz-adv-x="1000" />

<glyph glyph-name="a_002_information_circle" unicode="&#xe801;" d="M500-150c-276 0-500 224-500 500 0 276 224 500 500 500 276 0 500-224 500-500 0-276-224-500-500-500z m0 921c-232 0-421-189-421-421 0-232 189-421 421-421 232 0 421 189 421 421 0 232-189 421-421 421z m49-285h-98v-395h98v395z m0 78c0 25-22 46-49 46-27 0-49-21-49-46 0-26 22-46 49-46 27 0 49 20 49 46z" horiz-adv-x="1000" />

<glyph glyph-name="a_003_information_sign" unicode="&#xe802;" d="M500 850c-276 0-500-224-500-500 0-276 224-500 500-500s500 224 500 500c0 276-224 500-500 500z m53-782h-106v430h106v-430z m-53 464c-29 0-53 23-53 50 0 28 24 50 53 50 29 0 53-22 53-50 0-27-24-50-53-50z" horiz-adv-x="1000" />

<glyph glyph-name="a_004_arrow_left" unicode="&#xe803;" d="M494-150l-305 504 300 496h318l-301-496 306-504h-318z" horiz-adv-x="1000" />

<glyph glyph-name="a_005_arrow_right" unicode="&#xe804;" d="M506 850l306-504-301-496h-318l301 496-305 504h317z" horiz-adv-x="1000" />

<glyph glyph-name="a_006_arrow_up" unicode="&#xe805;" d="M0 356l504 306 496-301v-318l-496 301-504-305v317z" horiz-adv-x="1000" />

<glyph glyph-name="a_007_arrow_down" unicode="&#xe806;" d="M1000 344l-504-305-496 300v318l496-301 504 306v-318z" horiz-adv-x="1000" />

<glyph glyph-name="a_008_arrow_left_circle" unicode="&#xe807;" d="M500-150c-276 0-500 224-500 500 0 276 224 500 500 500s500-224 500-500c0-276-224-500-500-500z m0 921c-232 0-421-189-421-421 0-232 189-421 421-421s421 189 421 421c0 232-189 421-421 421z m8-421l142 205h-155l-145-205 145-205h155l-142 205z" horiz-adv-x="1000" />

<glyph glyph-name="a_009_arrow_right_circle" unicode="&#xe808;" d="M500 850c276 0 500-224 500-500 0-276-224-500-500-500s-500 224-500 500c0 276 224 500 500 500z m0-921c232 0 421 189 421 421 0 232-189 421-421 421-232 0-421-189-421-421 0-232 189-421 421-421z m-8 421l-142-205h156l144 205-144 205h-156l142-205z" horiz-adv-x="1000" />

<glyph glyph-name="a_010_arrow_up_circle" unicode="&#xe809;" d="M0 350c0 276 224 500 500 500 276 0 500-224 500-500s-224-500-500-500c-276 0-500 224-500 500z m921 0c0 232-189 421-421 421s-421-189-421-421 189-421 421-421 421 189 421 421z m-421-8l205-142v156l-205 144-205-144v-156l205 142z" horiz-adv-x="1000" />

<glyph glyph-name="a_011_arrow_down_circle" unicode="&#xe80a;" d="M1000 350c0-276-224-500-500-500s-500 224-500 500 224 500 500 500 500-224 500-500z m-921 0c0-232 189-421 421-421s421 189 421 421-189 421-421 421-421-189-421-421z m421 8l-205 142v-155l205-145 205 145v155l-205-142z" horiz-adv-x="1000" />

<glyph glyph-name="a_012_arrow_left_sign" unicode="&#xe80b;" d="M500 850c-276 0-500-224-500-500 0-276 224-500 500-500 276 0 500 224 500 500 0 276-224 500-500 500z m163-722h-169l-157 222 157 222h169l-154-222 154-222z" horiz-adv-x="1000" />

<glyph glyph-name="a_013_arrow_right_sign" unicode="&#xe80c;" d="M500-150c276 0 500 224 500 500 0 276-224 500-500 500-276 0-500-224-500-500 0-276 224-500 500-500z m-163 722h169l157-222-157-222h-169l154 222-154 222z" horiz-adv-x="1000" />

<glyph glyph-name="a_014_arrow_up_sign" unicode="&#xe80d;" d="M1000 350c0 276-224 500-500 500-276 0-500-224-500-500 0-276 224-500 500-500 276 0 500 224 500 500z m-722-163v169l222 157 222-157v-169l-222 154-222-154z" horiz-adv-x="1000" />

<glyph glyph-name="a_015_arrow_down_sign" unicode="&#xe80e;" d="M0 350c0-276 224-500 500-500 276 0 500 224 500 500 0 276-224 500-500 500-276 0-500-224-500-500z m722 163v-169l-222-157-222 157v169l222-154 222 154z" horiz-adv-x="1000" />

<glyph glyph-name="a_016_done" unicode="&#xe80f;" d="M420-104l-420 241 89 155 281-162 486 674 144-104-580-804z" horiz-adv-x="1000" />

<glyph glyph-name="a_018_done_sign" unicode="&#xe810;" d="M500 850c-276 0-500-224-500-500s224-500 500-500c276 0 500 224 500 500s-224 500-500 500z m-37-712l-197 113 42 72 131-76 227 315 68-48-271-376z" horiz-adv-x="1000" />

<glyph glyph-name="a_017_done_circle" unicode="&#xe811;" d="M500-150c-276 0-500 224-500 500s224 500 500 500c276 0 500-224 500-500s-224-500-500-500z m0 921c-232 0-421-189-421-421s189-421 421-421c232 0 421 189 421 421s-189 421-421 421z m234-257l-68 48-227-315-131 76-42-72 197-113 271 376z" horiz-adv-x="1000" />

<glyph glyph-name="a_019_exclamation" unicode="&#xe812;" d="M606 850l-30-698h-159l-31 698h220z m8-898c0 34-9 59-26 77-18 18-47 27-88 27-39 0-68-9-87-27-18-18-27-43-27-77 0-36 9-63 27-78 19-16 48-24 87-24 41 0 70 9 88 27 17 19 26 44 26 75z" horiz-adv-x="1000" />

<glyph glyph-name="a_020_exclamation_circle" unicode="&#xe813;" d="M500-150c-276 0-500 224-500 500s224 500 500 500 500-224 500-500-224-500-500-500z m0 923c-233 0-423-190-423-423 0-233 190-423 423-423s423 190 423 423c0 233-190 423-423 423z m-49-210l14-298h68l12 298h-94z m98-383c0 15-4 25-11 33-8 8-20 12-38 12-17 0-29-4-37-12-8-8-12-18-12-33 0-15 4-26 12-33 8-7 20-10 37-10 18 0 30 4 38 11 7 8 11 19 11 32z" horiz-adv-x="1000" />

<glyph glyph-name="a_021_exclamation_sign" unicode="&#xe814;" d="M500 850c-276 0-500-224-500-500 0-276 224-500 500-500 276 0 500 224 500 500 0 276-224 500-500 500z m45-287l-12-297h-68l-14 297h94z m-7-415c-8-7-20-11-38-11-17 0-29 3-37 10-8 7-12 18-12 33 0 15 4 25 12 33 8 8 20 12 37 12 18 0 30-4 38-12 7-8 11-18 11-33 0-13-4-24-11-32z" horiz-adv-x="1000" />

<glyph glyph-name="a_022_close" unicode="&#xe815;" d="M682-68l-182 293-182-293h-318l289 440-273 396h300l184-286 185 286h299l-273-396 289-440h-318z" horiz-adv-x="1000" />

<glyph glyph-name="a_023_close_circle" unicode="&#xe816;" d="M500-150c-276 0-500 224-500 500 0 276 224 500 500 500 276 0 500-224 500-500 0-276-224-500-500-500z m0 922c-233 0-422-189-422-422 0-233 189-422 422-422 233 0 422 189 422 422 0 233-189 422-422 422z m220-606l-127 194 120 174h-132l-81-126-81 126h-132l120-174-127-194h140l80 129 80-129h140z" horiz-adv-x="1000" />

<glyph glyph-name="a_024_close_sign" unicode="&#xe817;" d="M500 850c-276 0-500-224-500-500 0-276 224-500 500-500 276 0 500 224 500 500 0 276-224 500-500 500z m87-699l-87 140-87-140h-152l138 210-130 189h143l88-137 88 137h143l-130-189 138-210h-152z" horiz-adv-x="1000" />

<glyph glyph-name="a_025_question" unicode="&#xe818;" d="M578 293l-8-144h-158l-10 219c114 61 190 118 190 202 0 61-45 94-124 94-78 0-144-28-193-72l-73 162c66 56 176 96 294 96 202 0 302-96 302-246 0-143-84-240-220-311z m-87-443c-79 0-113 28-113 101 0 65 34 102 113 102s113-37 113-102c0-62-34-101-113-101z" horiz-adv-x="1000" />

<glyph glyph-name="a_027_question_sign" unicode="&#xe819;" d="M500 850c-276 0-500-224-500-500 0-276 224-500 500-500s500 224 500 500c0 276-224 500-500 500z m60-767c-10-9-25-14-45-14-21 0-36 4-46 12-9 8-14 22-14 41 0 17 5 30 14 40 10 9 25 13 46 13 20 0 35-4 45-13 9-10 14-23 14-40 0-16-5-29-14-39z m84 285c-20-26-48-48-84-67l-4-75h-83l-5 114c30 16 54 32 72 49 18 16 27 35 27 57 0 16-5 28-17 37-11 8-27 12-48 12-20 0-39-3-56-10s-32-16-45-27l-38 85c17 14 40 26 67 36 27 9 56 14 87 14 53 0 93-12 119-35 26-24 39-55 39-94 0-38-10-70-31-96z" horiz-adv-x="1000" />

<glyph glyph-name="a_026_question_circle" unicode="&#xe81a;" d="M500-150c-276 0-500 224-500 500s224 500 500 500c276 0 500-224 500-500s-224-500-500-500z m0 923c-233 0-423-190-423-423 0-233 190-423 423-423 233 0 423 190 423 423 0 233-190 423-423 423z m68-634c0 16-4 29-13 37-9 9-22 13-42 13-19 0-33-4-41-13-9-8-13-21-13-37 0-17 4-30 13-37 8-8 22-11 41-11 20 0 33 4 42 13 9 9 13 20 13 35z m94 316c0 36-12 65-37 87-24 21-60 32-109 32-28 0-55-4-81-13-25-9-45-20-61-33l35-79c12 11 26 20 41 26 16 6 33 9 52 9 19 0 34-4 45-12 10-7 15-19 15-33 0-21-8-38-25-53-17-15-39-30-67-45l5-106h77l3 70c33 17 59 38 78 62 19 24 29 53 29 88z" horiz-adv-x="1000" />

<glyph glyph-name="a_028_add" unicode="&#xe81b;" d="M617 222v-372h-241v372h-376v254h376v374h241v-374h383v-254h-383z" horiz-adv-x="1000" />

<glyph glyph-name="a_029_add_circle" unicode="&#xe81c;" d="M500-150c-276 0-500 224-500 500 0 276 224 500 500 500 276 0 500-224 500-500 0-276-224-500-500-500z m0 922c-233 0-422-189-422-422 0-233 189-422 422-422 233 0 422 189 422 422 0 233-189 422-422 422z m52-479v-167h-107v167h-167v113h167v168h107v-168h170v-113h-170z" horiz-adv-x="1000" />

<glyph glyph-name="a_030_add_sign" unicode="&#xe81d;" d="M500 850c-276 0-500-224-500-500s224-500 500-500 500 224 500 500-224 500-500 500z m220-561h-167v-166h-106v166h-167v114h167v174h106v-174h167v-114z" horiz-adv-x="1000" />

<glyph glyph-name="a_031_off_canvas_menu" unicode="&#xe81e;" d="M0 570v113h1000v-113h-1000z m1000-273v106h-1000v-106h1000z m0-280v113h-1000v-113h1000z" horiz-adv-x="1000" />

<glyph glyph-name="a_032_more" unicode="&#xe81f;" d="M402 850h197v-197h-197v197z m0-591h197v182h-197v-182z m0-409h197v197h-197v-197z" horiz-adv-x="1000" />

<glyph glyph-name="a_033_edit" unicode="&#xe820;" d="M935 681l-351-418-202 169 351 418 202-169z m-869-831l116 51-86 73-30-124z m71 290l-21-88 140-118 83 37 198 236-201 170-199-237z" horiz-adv-x="1000" />

<glyph glyph-name="a_034_list" unicode="&#xe821;" d="M273 570v113h727v-113h-727z m727-273v106h-727v-106h727z m0-280v113h-727v-113h727z m-886 553v113h-114v-113h114z m0-273v106h-114v-106h114z m0-280v113h-114v-113h114z" horiz-adv-x="1000" />

<glyph glyph-name="a_035_home_line" unicode="&#xe822;" d="M500 850l-430-221v-779h349v389h81 81v-389h350v779l-431 221z m359-929h-207v318 71h-71-81-81-71v-71-318h-207v665l359 184 0 0 0 0 359-184v-665z" horiz-adv-x="1000" />

<glyph glyph-name="a_036_home_filled" unicode="&#xe823;" d="M500 850l-430-221v-779h349v389h81 81v-389h350v779l-431 221z" horiz-adv-x="1000" />

<glyph glyph-name="a_037_visible_line" unicode="&#xe824;" d="M988 366c-7 10-192 259-488 259s-481-249-488-259l-12-16 12-16c7-10 192-258 488-258s481 248 488 258l12 16-12 16z m-488-193c-97 0-177 80-177 177 0 98 80 177 177 177s177-79 177-177c0-97-79-177-177-177z m-432 177c34 41 136 149 285 197-60-45-99-116-99-197 0-80 39-152 99-197-148 48-251 156-285 197z m579-197c60 45 99 117 99 197 0 81-39 152-99 197 149-48 251-156 285-197-34-41-137-149-285-197z" horiz-adv-x="1000" />

<glyph glyph-name="a_038_visible_filled" unicode="&#xe825;" d="M988 366c-19 27-200 258-488 258-288 0-468-231-488-258l-12-16 12-16c20-26 200-258 488-258 288 0 469 232 488 258l12 16-12 16z m-638-211c-59 45-97 116-97 195 0 80 38 150 97 196 46 15 96 24 150 24s105-9 150-24c59-46 97-116 97-196 0-80-38-150-97-195-45-16-96-25-150-25s-104 9-150 25z m327 195c0 98-79 177-177 177-98 0-177-79-177-177 0-98 79-177 177-177 98 0 177 79 177 177z" horiz-adv-x="1000" />

<glyph glyph-name="a_039_full_screen" unicode="&#xe826;" d="M1000 850v0-136-228h-136v228h-228v136h228l0 0h136z m0-864l0 0v228h-136v-228h-228v-136h228 136 0v136z m-864-136l0 0h228v136h-228v228h-136v-228-136 0h136z m-136 864l0 0v-228h136v228h228v136h-228-136 0v-136z" horiz-adv-x="1000" />

<glyph glyph-name="a_040_fit_to_size" unicode="&#xe827;" d="M694-120l87 87-288 288-284-285 90-90-301-26 25 302 87-87 284 285-284 284-87-87-27 301 303-25-90-90 284-284 288 287-87 87 301 27-25-303-90 90-288-287 288-288 90 90 26-301-302 25z" horiz-adv-x="1000" />

<glyph glyph-name="a_041_change_assignment" unicode="&#xe828;" d="M335 265l113-75c-30-20-60-39-89-57-30-19-45-45-45-81 1-58 0-115 0-173 0-1 0-2 0-3v-26h-60c0 0-1 0-2 0h-58v40h0c0 65-2 131 5 195 6 66 43 118 98 155 12 8 25 17 38 25z m470 354h134l-196 231-194-231h135c0-29-1-56 0-83 1-35-14-60-43-79-27-17-54-34-81-51-7-5-15-10-22-15l119-71c13 9 26 17 39 25 76 45 111 112 109 200 0 24 0 48 0 74z m-11-572c-1 55-19 104-54 147-24 31-57 52-90 72-93 60-187 119-281 178-29 18-49 43-52 78-2 32 0 64 0 97h134l-196 231-194-231h132c0-28 1-54 0-80-1-87 34-153 108-199 108-67 215-137 323-204 35-22 50-50 50-90-1-55-1-110-1-165v-31h121v40h0c0 52 0 105 0 157z" horiz-adv-x="1000" />

<glyph glyph-name="a_043_update" unicode="&#xe829;" d="M510-150c-275 0-500 224-500 500 0 276 225 500 500 500 143 0 278-61 372-168l108 109v-313h-311l118 117c-71 84-177 133-287 133-208 0-377-170-377-378s169-378 377-378c148 0 283 87 344 221l9 19 111-51-9-19c-81-177-260-292-455-292z" horiz-adv-x="1000" />

<glyph glyph-name="a_042_reload" unicode="&#xe82a;" d="M997 372c1-7 1-15 1-23-1-276-225-500-501-499-143 0-277 61-372 169l-107-109 0 313 311-1-118-117c71-83 176-133 286-133 208 0 378 169 378 377 0 8 0 16 0 23h122z m-122 309c-95 108-229 169-372 169-276 1-500-223-501-499 0-8 1-16 1-23h122c0 7 0 15 0 23 0 208 170 377 378 377 110 0 215-50 286-133l-118-117 311-1 0 313-107-109z" horiz-adv-x="1000" />

<glyph glyph-name="a_044_reset" unicode="&#xe82b;" d="M35 142l-9 19 111 51 9-19c61-134 196-221 344-221 208 0 377 170 377 378s-169 378-377 378c-110 0-216-49-287-133l118-117h-311v313l108-109c95 107 229 168 372 168 275 0 500-224 500-500 0-276-225-500-500-500-195 0-374 115-455 292z" horiz-adv-x="1000" />

<glyph glyph-name="a_045_link_line" unicode="&#xe82c;" d="M163-119c42-20 86-31 132-31 73 0 144 29 199 81 76 73 132 130 183 185 10 10 19 21 26 32 14 10 27 20 39 32 76 72 133 129 184 184 103 111 98 291-12 400-54 55-130 86-208 86-72 0-140-26-192-74-55-51-111-108-184-184-12-12-22-25-32-39-11-8-22-16-32-26-55-51-112-107-185-183-86-91-105-218-50-331 14-29 33-55 55-77 23-23 48-41 77-55z m260 723c42 42 83 85 126 125 135 125 351 57 389-123 17-76-1-147-54-204-60-64-123-127-187-187-103-95-271-71-348 44l0 1c-2 2-3 4-3 7 0 3 2 5 4 7l1 1c13 14 44 46 66 70l2 3c2 2 4 3 7 3 4 0 6-2 8-5l2-2c6-11 11-21 19-29 43-51 119-56 167-9 59 56 117 114 173 173 44 45 41 117-3 162-44 43-115 46-161 4-20-18-38-37-56-56-6-6-11-7-19-4-42 15-85 19-130 14-1 0-3 0-4 1-1 2 1 4 1 4z m-300-301c59 62 120 123 182 182 104 95 275 69 350-48l0 0c1-1 1-3 1-4 0-3-1-6-3-7-26-27-44-47-69-73-2-2-5-4-8-4-4 0-7 2-9 6-6 11-10 18-18 28-44 54-120 58-171 10-57-56-114-112-169-170-64-67-31-174 59-195 38-9 74 0 103 27 20 18 38 38 58 56 3 3 9 6 13 5 61-16 74-19 126-16 5 1 8 0 9-3 1-2 0-4-4-8-13-12-24-24-36-35-29-29-58-59-88-87-112-103-299-67-365 70-45 91-31 193 39 266z" horiz-adv-x="1000" />

<glyph glyph-name="a_046_link_filled" unicode="&#xe82d;" d="M671 435c-29-30-50-52-78-82-2-3-5-4-8-4-5 0-9 2-11 6-7 13-11 21-20 32-50 61-136 66-193 11-65-63-129-126-191-192-72-75-35-196 67-219 43-10 83-1 116 30 22 20 43 43 65 64 4 3 10 6 15 5 69-19 83-21 142-18 6 1 9 0 11-3 1-3 0-5-5-10-14-14-27-27-40-40-34-32-66-66-100-98-127-116-337-75-412 80-50 102-35 218 44 300 67 70 135 139 206 205 116 108 310 79 395-54l0 0c0-2 1-3 1-4 0-4-2-7-4-9z m-245-92c7-12 13-23 21-33 50-57 135-63 189-10 67 64 132 129 196 196 49 51 46 131-4 182-49 49-130 52-181 5-23-20-43-42-64-63-7-7-12-8-21-5-47 17-97 22-147 16-1 0-4 0-5 1-1 2 1 4 2 5 47 47 93 96 142 141 152 141 396 64 439-139 19-86-1-166-61-230-68-73-139-144-211-211-116-108-306-81-392 50l-1 1c-2 2-3 4-3 7 0 3 2 6 4 8l1 1c15 16 50 53 75 79l2 3c2 2 5 4 8 4 4 0 7-2 9-5l2-3z" horiz-adv-x="1000" />

<glyph glyph-name="a_047_share" unicode="&#xe82e;" d="M821 96c-33 0-63-13-85-34l-439 253c3 11 5 22 5 34 0 12-2 23-5 34l441 254c21-20 51-33 83-33 68 0 123 55 123 123 0 68-55 123-123 123s-123-55-123-123c0-13 2-26 6-38l-438-253c-22 22-53 36-87 36-68 0-123-55-123-123 0-68 55-123 123-123 34 0 65 14 87 37l438-253c-4-12-6-24-6-37 0-68 55-123 123-123s123 55 123 123-55 123-123 123z" horiz-adv-x="1000" />

<glyph glyph-name="a_049_search_filled" unicode="&#xe82f;" d="M662 220l-1 1c57 66 92 152 92 246 0 208-169 377-377 377-207 0-376-169-376-377 0-207 169-376 376-376 86 0 164 28 227 76v0l344-311 53 59-338 305z m-286-52c-165 0-299 134-299 299 0 166 134 300 299 300 166 0 300-134 300-300 0-74-27-142-72-194l-1-1c-55-64-136-104-227-104z m0 62c-130 0-237 107-237 237 0 131 107 238 237 238 131 0 238-107 238-238 0-58-22-112-57-154l-1 0c-43-51-108-83-180-83z" horiz-adv-x="1000" />

<glyph glyph-name="a_048_search_line" unicode="&#xe830;" d="M662 220l-1 1c57 66 92 152 92 246 0 208-169 377-377 377-207 0-376-169-376-377 0-207 169-376 376-376 86 0 164 28 227 76v0l344-311 53 59-338 305z m-286-52c-165 0-299 134-299 299 0 166 134 300 299 300 166 0 300-134 300-300 0-74-27-142-72-194l-1-1c-55-64-136-104-227-104z" horiz-adv-x="1000" />

<glyph glyph-name="a_050_delete_line" unicode="&#xe831;" d="M1000 720h-111-127v74h-524v-74h-127-111v-84h111v-730h778v730h111v84z m-196-730h-608v646h608v-646z m-403 112h-74v384h74v-384z m134 0h-74v384h74v-384z m135 0h-75v384h75v-384z" horiz-adv-x="1000" />

<glyph glyph-name="a_051_delete_filled" unicode="&#xe832;" d="M889 720h-127v74h-524v-74h-127-111v-84h111v-730h778v730h111v84h-111z m-488-618h-74v384h74v-384z m134 0h-74v384h74v-384z m135 0h-75v384h75v-384z" horiz-adv-x="1000" />

<glyph glyph-name="a_052_settings_line" unicode="&#xe833;" d="M461-73h77l36 112 20 6c9 3 21 11 33 19 8 6 17 11 26 16l17 10 98-47 56 56-46 98 9 17c13 24 21 43 26 60l6 19 104 37v79l-104 36-6 19c-5 19-16 40-27 60l-9 17 46 97-55 55-97-49-18 10c-13 7-27 11-44 16-5 1-10 3-16 4l-17 6-36 93h-80l-37-93-17-6c-11-3-20-5-29-7-12-2-23-4-31-9l-17-9-98 47-56-57 46-98-9-17c-12-22-20-42-26-60l-5-19-104-36v-79l104-37 5-19c6-20 17-41 27-60l9-17-46-99 56-58 97 44 17-9c5-2 10-5 15-8 15-9 31-18 45-22l19-6 36-112 0 0z m133-77l0 0h-189l-42 129c-13 6-25 13-37 19l-111-50-132 134 53 113c-6 12-12 25-17 38l-119 42v189l119 41c4 12 10 25 16 38l-52 112 132 134 113-55c12 4 24 7 34 9 1 0 2 0 4 1l41 106h185l42-108c12-3 24-7 37-12l112 57 133-133-53-111c6-12 12-25 17-38l120-41v-189l-119-42c-5-12-10-24-17-38l52-112-132-133-110 53c-2-1-3-2-4-3-11-7-22-14-34-20l-42-130z m-94 312c-104 0-188 84-188 188s84 188 188 188c104 0 188-84 188-188s-84-188-188-188z m0 300c-62 0-112-50-112-112 0-62 50-112 112-112 62 0 112 50 112 112 0 62-50 112-112 112z" horiz-adv-x="1000" />

<glyph glyph-name="a_053_settings_filled" unicode="&#xe834;" d="M874 238l6 17 120 42v147l-120 42-6 17c-6 14-12 27-18 37l-8 17 53 113-103 103-112-56-17 7c-11 5-24 8-35 11l-20 6-42 109h-145l-35-89-8-22-23-4-2 0c-10-2-21-4-31-8l-16-5-111 53-104-104 53-113-8-17c-6-13-12-25-16-37l-7-18-119-42v-147l119-42 7-17c4-11 10-24 17-38l9-17-54-114 103-106 113 52 18-10c12-7 24-14 36-19l17-7 42-129h146l41 128 15 8c11 5 21 12 31 19 0 0 4 2 5 3l19 13 114-55 104 104-53 113 8 17c7 14 12 26 17 38z m-374-61c-96 0-173 77-173 173 0 96 77 173 173 173s173-77 173-173c0-96-77-173-173-173z" horiz-adv-x="1000" />

<glyph glyph-name="a_054_location_line" unicode="&#xe835;" d="M504 789c14 0 27-1 40-3 16-2 32-6 47-10 38-12 72-30 102-54 46-37 76-82 93-137 8-25 12-50 13-75 0-10 0-21 0-32l0-11c0-14-2-28-4-44-4-21-19-66-28-81-85-138-202-304-267-392-64 88-182 254-267 392-9 15-24 60-28 81-2 16-4 30-4 44l0 10c0 12 0 23 0 33 1 25 5 50 13 75 17 55 48 99 93 137 30 24 64 42 102 54 15 4 31 8 47 10 13 2 27 3 40 3l3 0h1 1l3 0m0 61c-1 0-3 0-4 0-1 0-3 0-4 0-16 0-32-1-48-3-19-3-38-7-56-12-46-14-87-36-124-66-54-44-92-99-113-166-9-30-14-60-15-91 0-15 0-30 0-45 0-18 2-36 5-54 4-26 22-80 36-103 114-186 294-432 319-460 0 0 0 0 0 0 0 0 0 0 0 0 25 28 205 274 319 460 14 23 32 77 36 103 3 18 5 36 5 54 0 15 0 30 0 45 0 31-6 61-15 91-21 67-59 122-113 166-37 30-78 52-124 66-18 5-37 9-56 12-16 2-32 3-48 3l0 0z" horiz-adv-x="1000" />

<glyph glyph-name="a_055_location_filled" unicode="&#xe836;" d="M860 466c0-17-2-35-5-53-4-26-22-80-36-103-114-186-294-432-319-460 0 0 0 0 0 0 0 0 0 0 0 0-25 28-205 274-319 460-14 23-32 77-36 103-3 18-5 36-5 53 0 16 0 31 0 46 1 31 6 61 15 91 21 67 59 122 113 166 37 30 78 52 124 66 18 5 37 9 56 12 17 2 35 3 52 3 17 0 35-1 52-3 19-3 38-7 56-12 46-14 87-36 124-66 54-44 92-99 113-166 9-30 15-60 15-91 1-15 0-30 0-46z" horiz-adv-x="1000" />

<glyph glyph-name="a_056_smartphone_line" unicode="&#xe837;" d="M690-150h-380c-54 0-99 44-99 99v802c0 55 45 99 99 99h380c54 0 99-44 99-99v-802c0-55-45-99-99-99z m-380 949c-26 0-48-22-48-48v-802c0-26 22-48 48-48h380c26 0 48 22 48 48v802c0 26-22 48-48 48h-380z m9-578c0-12 0-30 0-42v-16c0-12 0-30 0-42v-4c0-11 10-21 21-21h320c11 0 21 10 21 21v365c0 12 0 30 0 42v17c0 11 0 30 0 41v58c0 11-10 21-21 21h-320c-11 0-21-10-21-21v-419z m181-272c31 0 56 25 56 56 0 30-25 55-56 55-31 0-56-25-56-55 0-31 25-56 56-56l0 0 0 0z" horiz-adv-x="1000" />

<glyph glyph-name="a_057_smartphone_filled" unicode="&#xe838;" d="M223 105v667c0 43 34 78 77 78h400c43 0 78-35 78-78v-112-62-670c0-43-35-78-78-78h-400c-43 0-77 35-77 78v115 62l0 0z m87 87v-61-48h380v428 62 104h-380v-485l0 0 0 0z m190-265c32 0 59 27 59 59 0 32-27 59-59 59-32 0-59-27-59-59 0-32 27-59 59-59l0 0 0 0z m71 788v44h-142v-44h142l0 0z" horiz-adv-x="1000" />

<glyph glyph-name="a_058_duration_line" unicode="&#xe839;" d="M746 586c14 48 16 152 16 204v60h-262-262v-60c0-52 3-156 16-204 21-74 162-195 223-234v-6c-57-36-213-150-227-249-10-72-12-141-12-182v-65h262 262v65c0 41-2 110-12 182-13 99-170 213-227 249v6c61 39 202 160 223 234z m-52-496c4-31 7-61 9-88h-203-202c1 27 4 57 8 88 8 56 104 145 194 203 90-58 186-147 194-203z m-194 431h-134c-29 31-52 61-58 80-8 30-13 100-14 189v4h206 206v-4c-1-89-6-159-14-189-6-19-29-49-58-80h-134z" horiz-adv-x="1000" />

<glyph glyph-name="a_059_duration_filled" unicode="&#xe83a;" d="M746 586c13 48 16 152 16 204v60h-262-262v-60c0-52 3-156 16-204 21-74 162-195 223-234v-6c-57-36-213-150-227-249-10-72-12-141-12-182v-65h262 262v65c0 41-2 110-12 182-13 99-170 213-227 249v6c61 39 202 160 223 234z m-45-584v-102h-403v102h403z m-201 398c-24 8-142 129-142 129h284c0 0-118-121-142-129z" horiz-adv-x="1000" />

<glyph glyph-name="a_060_time_line" unicode="&#xe83b;" d="M854 703l0 1c-91 90-216 146-354 146-138 0-263-56-353-146l0-1c-91-90-147-215-147-353 0-138 56-263 147-354 90-90 215-146 353-146 138 0 263 56 354 146l0 0c90 91 146 216 146 354 0 138-56 263-146 353z m-57-650v0c-76-76-181-123-297-123-116 0-221 47-297 123-76 76-122 181-122 297 0 116 46 221 122 297h0c76 76 181 123 297 123 116 0 221-47 297-123h0c76-76 123-181 123-297 0-116-47-221-123-297z m-254 320v266 31h-79v-289h-222v-79h231c8-7 19-11 31-11 27 0 50 23 50 50 0 12-4 23-11 32z" horiz-adv-x="1000" />

<glyph glyph-name="a_061_time_filled" unicode="&#xe83c;" d="M854 703l0 1c-91 90-216 146-354 146-138 0-263-56-353-146l0-1c-91-90-147-215-147-353 0-138 56-263 147-354 90-90 215-146 353-146 138 0 263 56 354 146l0 0c90 91 146 216 146 354 0 138-56 263-146 353z m-350-412c-12 0-23 4-31 11h-231v79h222v289h79v-31-266c7-9 11-20 11-32 0-27-23-50-50-50z" horiz-adv-x="1000" />

<glyph glyph-name="a_062_user_profile_line" unicode="&#xe83d;" d="M807 150c0 15-1 31-3 47-8 54-29 103-63 146-22 28-49 51-79 70-1 1-21 14-58 24 10 7 20 15 30 25 46 46 66 102 67 164 0 26-3 49-10 72-16 53-45 96-93 125-48 29-99 35-152 17-47-17-81-48-106-90-29-51-38-106-28-163 10-60 38-110 89-146 1-2 3-3 5-4-60-17-100-46-111-56-67-62-102-139-102-230-1-95 0-191 0-286 0-5 0-10 0-15 3 0 5 0 7 0 200 0 399 0 598 0 10 0 9-1 9 9 0 97 1 194 0 291z m-431 448c-7 43-1 82 21 119 17 31 41 51 70 61 14 5 27 7 39 7 20 0 39-6 58-17 31-20 53-49 65-89 4-15 7-31 7-53-1-49-17-87-48-119-20-20-43-31-69-34-5-1-11-1-16-1-23 0-44 7-64 21-35 25-55 59-63 105z m366-683l-484 0c0 12 0 24 0 36 0 66 0 133 0 200 1 73 27 132 82 182 0 1 61 52 160 52 84 0 124-25 126-26l1-1c24-15 46-34 63-56 27-34 43-71 50-115 1-11 2-23 2-38 0-76 0-152 0-229v-5z" horiz-adv-x="1000" />

<glyph glyph-name="a_063_user_profile_filled" unicode="&#xe83e;" d="M806 150c0 15-1 31-3 47-8 54-29 103-63 146-22 28-49 51-79 70-1 1-20 14-58 24 11 7 21 15 30 25 46 46 66 102 67 164 0 26-3 49-10 72-16 53-45 96-92 125-48 29-99 35-152 17-46-17-81-48-105-90-29-51-38-106-28-163 10-60 38-110 88-146 2-2 4-3 6-4-60-17-100-46-111-56-67-62-101-139-102-230 0-95 0-191 0-286 0-5 0-10 0-15 3 0 5 0 8 0 198 0 397 0 595 0 9 0 9-1 9 9 0 97 0 194 0 291z m-429 448c-8 43-1 82 20 119 18 31 41 51 70 61 14 5 27 7 39 7 20 0 38-6 58-17 31-20 52-49 64-89 5-15 7-31 7-53-1-49-17-87-48-119-20-20-42-31-68-34-5-1-11-1-16-1-23 0-44 7-64 21-34 25-55 59-62 105z" horiz-adv-x="1000" />

<glyph glyph-name="a_064_calendar_line" unicode="&#xe83f;" d="M677 497h134v-125h-134v125z m0-317h134v156h-134v-156z m0-184h134v148h-134v-148z m-159 376h123v125h-123v-125z m0-192h123v156h-123v-156z m0-184h123v148h-123v-148z m-159 376h123v125h-123v-125z m0-192h123v156h-123v-156z m0-184h123v148h-123v-148z m-170 376h135v125h-135v-125z m0-192h135v156h-135v-156z m0-184h135v148h-135v-148z m738 707v-799-53-1h-854v853h151v147h199v-147h154v147h199v-147h151z m-66-66h-150-68-285-68-151v-721h722v721z" horiz-adv-x="1000" />

<glyph glyph-name="a_065_calendar_filled" unicode="&#xe840;" d="M898-150h29v37 173c0 21 0 48 0 58 0 10 0 36 0 58v87c0 22 0 48 0 58 0 10 0 37 0 58v276 39h-39c0 0-50 0-122 0v13 109 34h-35-85-35v-34-109-13c-74 0-153 0-222 0v13 109 34h-34-86-35v-34-109-13c-24 0-40 0-43 0h-79-39v-39-768-37h29 796z m-209 656h143v-133h-143v133z m0-171h143v-165h-143v165z m0-203h143v-156h-143v156z m-170 374h131v-133h-131v133z m0-171h131v-165h-131v165z m0-203h131v-156h-131v156z m-169 374h131v-133h-131v133z m0-171h131v-165h-131v165z m0-203h131v-156h-131v156z m-182 374h144v-133h-144v133z m0-171h144v-165h-144v165z m0-203h144v-156h-144v156z" horiz-adv-x="1000" />

<glyph glyph-name="a_066_chat_line" unicode="&#xe841;" d="M872 586h-158v41c0 70-58 128-128 128h-458c-71 0-128-58-128-128v-513l183 117h103v-41c0-70 58-128 128-128h403l183-117v513c0 71-57 128-128 128z m-586-128v-162h-122l-99-63v394c0 34 28 63 63 63h458c34 0 63-29 63-63v-41h-235c-70 0-128-57-128-128z m649-394l-99 63h-422c-34 0-63 29-63 63v268c0 35 29 63 63 63h458c35 0 63-28 63-63v-394z" horiz-adv-x="1000" />

<glyph glyph-name="a_067_chat_filled" unicode="&#xe842;" d="M872 586h-158v41c0 70-58 128-128 128h-458c-71 0-128-58-128-128v-513l183 117h103v-41c0-70 58-128 128-128h403l183-117v513c0 71-57 128-128 128z m63-522l-99 63h-422c-34 0-63 29-63 63v268c0 35 29 63 63 63h458c35 0 63-28 63-63v-394z" horiz-adv-x="1000" />

<glyph glyph-name="a_068_feedback_line" unicode="&#xe843;" d="M809-124l-309 213-309-213 109 357-300 232 377 0 123 359 123-359 377 0-300-232 109-357z m-117 160l-68 221 185 143-232 0-77 223-77-223-232 0 185-143-67-221 191 132 192-132z" horiz-adv-x="1000" />

<glyph glyph-name="a_069_feedback_filled" unicode="&#xe844;" d="M809-124l-309 213-309-213 109 357-300 232 377 0 123 359 123-359 377 0-300-232 109-357z" horiz-adv-x="1000" />

<glyph glyph-name="a_070_notification_line" unicode="&#xe845;" d="M620-29c5-62-54-121-120-121-66-1-125 58-121 121 80 0 160 0 241 0z m221 106c-56 129-57 182-59 257-1 37-2 79-9 135-21 155-116 222-203 242v139h-1-138-1v-139c-87-20-182-87-203-242-7-56-8-98-9-135-2-75-3-128-59-257l-23-54h356 7 365l-23 54z m-342 23h-7-240c40 107 42 166 43 232 1 37 2 75 9 127 20 151 171 177 196 177 25 0 176-26 196-177 7-52 8-90 9-127 1-66 3-125 43-232h-249z" horiz-adv-x="1000" />

<glyph glyph-name="a_071_notification_filled" unicode="&#xe846;" d="M620-29c5-62-54-121-120-121-66-1-125 58-121 121 80 0 160 0 241 0z m221 106c-56 129-57 182-59 257-1 37-2 79-9 135-21 155-116 222-203 242v139h-1-138-1v-139c-87-20-182-87-203-242-7-56-8-98-9-135-2-75-3-128-58-257l-24-54h356 8 364l-23 54z" horiz-adv-x="1000" />

<glyph glyph-name="a_072_notification_for_badge_line" unicode="&#xe847;" d="M620-29c5-62-54-121-120-121-66-1-125 58-121 121 80 0 160 0 241 0z m162 363c-1 37-2 79-9 135 0 2-1 3-1 5-23-12-48-19-75-20 6-49 7-86 8-122 1-66 3-125 43-232h-248-8-240c40 107 42 166 43 232 1 37 2 75 9 127 20 151 171 177 196 177 2 0 5 0 8 0l0 0c0 55 24 103 62 137v77h-1-138-1v-139c-87-20-182-87-203-242-7-56-8-98-9-135-2-75-3-128-59-257l-23-54h356 8 364l-23 54c-56 129-57 182-59 257z" horiz-adv-x="1000" />

<glyph glyph-name="a_073_notification_for_badge_filled" unicode="&#xe848;" d="M622-29c5-62-54-121-120-121-66-1-125 58-121 121 80 0 160 0 241 0z m160 363c-1 37-2 79-9 135 0 1-1 3-1 4-24-12-51-19-80-19-101 0-182 82-182 182 0 54 23 102 60 135v79h-1-138-1v-139c-87-20-182-87-203-242-7-56-8-98-9-135-2-75-3-128-59-257l-23-54h356 8 364l-23 54c-56 129-57 182-59 257z" horiz-adv-x="1000" />

<glyph glyph-name="a_074_badge_notification" unicode="&#xe849;" d="M690 752c63 0 115-52 115-116 0-64-52-116-115-116-64 0-116 52-116 116 0 64 52 116 116 116" horiz-adv-x="1000" />

<glyph glyph-name="a_075_sound_line" unicode="&#xe84a;" d="M908 33l-43 33c51 68 81 170 81 281 0 109-29 210-80 278l44 33c57-78 90-191 90-311 0-123-33-237-92-314z m-105 97l-43 33c33 44 52 111 52 184 0 71-19 137-52 182l44 32c40-53 63-132 63-214 0-85-24-164-64-217z m-219 688l-295-289h-289v-313-45-9h162 31 96l295-280 0 936z m-269-591h-250v237h251l203 199 0-629-204 193z" horiz-adv-x="1000" />

<glyph glyph-name="a_076_sound_filled" unicode="&#xe84b;" d="M908 33l-43 33c51 68 81 170 81 281 0 109-29 210-80 278l44 33c57-78 90-191 90-311 0-123-33-237-92-314z m-105 97l-43 33c33 44 52 111 52 184 0 71-19 137-52 182l44 32c40-53 63-132 63-214 0-85-24-164-64-217z m-219 688l-295-289h-289v-313-45-9h162 31 96l295-280 0 936z" horiz-adv-x="1000" />

<glyph glyph-name="a_077_locked_line" unicode="&#xe84c;" d="M774 459h-14v131c0 1 0 2 0 3l0 19h-1c-11 133-123 238-259 238s-248-105-259-238l-1-153h-18-101v-609h758v17h1v132 177 283h-106z m-468 150c9 99 94 176 194 176 101 0 186-78 194-179l1-8 0-139h-390l1 150z m509-677l0-17h-630v479h37 83 390 79 41v-462z m-315 377h0 0c-54 0-97-43-97-97 0-27 11-53 30-71v-142h67 67v142c19 18 30 44 30 71 0 54-43 97-97 97z m-17-261v117l-11 8c-13 9-20 23-20 39 0 27 21 48 48 48h0c0 0 0 0 0 0 27 0 48-21 48-48 0-16-7-30-20-39l-10-8v-117h-35z" horiz-adv-x="1000" />

<glyph glyph-name="a_078_locked_filled" unicode="&#xe84d;" d="M774 459h-14v131c0 1 0 2 0 3l0 19h-1c-11 133-123 238-259 238s-248-105-259-238l-1-153h-18-101v-609h758v17h1v132 177 283h-106z m-222-302l-7-7v-129h-90v129l-7 7c-15 14-24 34-24 55 0 42 34 76 76 76 42 0 76-34 76-76 0-21-9-41-24-55z m-225 302l1 149c8 87 84 155 172 155 90 0 165-69 173-158l0-7 0-139h-346z" horiz-adv-x="1000" />

<glyph glyph-name="a_079_unlocked_line" unicode="&#xe84e;" d="M500 310h0 0c-54 0-98-43-98-97 0-27 12-53 31-71v-142h67 67v142c19 18 31 44 31 71 0 54-44 97-98 97z m28-137l-10-7v-117h-35v117l-11 7c-13 9-20 24-20 40 0 27 21 48 48 48l0 0h0c27 0 48-21 48-48 0-16-7-31-20-40z m246 287h-4-9-66-320l-30 66c-32 94 13 200 104 241 92 42 202 6 252-82l3-7 52-113 59 27-48 105c0 1-1 2-1 3l-8 17-1 0c-65 117-211 166-335 110-124-57-182-199-137-325l18-42h-63-19-101v-610h760v17h0v132 178 283h-106z m41-528l0-17h-630v480h36 83 392 78 41v-463z" horiz-adv-x="1000" />

<glyph glyph-name="a_080_unlocked_filled" unicode="&#xe84f;" d="M774 460h-4-9-66-320l-30 66c-32 94 13 200 104 241 92 42 202 6 252-82l3-7 52-113 59 27-48 105c0 1-1 2-1 3l-8 17-1 0c-65 117-211 166-335 110-124-57-183-199-137-325l18-42h-63-19-101v-610h760v17h0v132 178 283h-106z m-326-302c-15 14-24 34-24 55 0 42 34 76 76 76 42 0 76-34 76-76 0-21-9-41-24-55l-7-7v-130h-90v130l-7 7z" horiz-adv-x="1000" />

<glyph glyph-name="a_081_save_line" unicode="&#xe850;" d="M949-150h-898v857h306v-81h-224v-694h734v694h-224v81h306v-857z m-408 510v490h-82v-490h-122l164-163 162 163h-122z" horiz-adv-x="1000" />

<glyph glyph-name="a_082_save_filled" unicode="&#xe851;" d="M949 707v-857h-898v857h375v-314h-169l244-243 241 243h-168v314h375z" horiz-adv-x="1000" />

<glyph glyph-name="a_083_rename" unicode="&#xe852;" d="M395 170h-218l-34-117h-143l208 602h161l210-602h-150l-34 117z m-125 320l-60-207h153l-58 207-16 63h-2l-17-63z m625-390l-2 0c-30-35-77-55-132-55-92 0-151 52-151 161 0 90 63 152 173 152 36 0 68-6 93-14v29c0 48-25 71-92 71-54 0-89-8-134-27l-10 100c49 21 104 32 167 32 143 0 193-62 193-195v-301h-95l-10 47z m-19 162c-12 5-36 10-69 10-55 0-81-21-81-64 0-47 28-64 69-64 43 0 81 25 81 57v61z" horiz-adv-x="1000" />

<glyph glyph-name="a_084_package_line" unicode="&#xe853;" d="M1000 611l-475 211-524-209 0 0-1 0v-486l476-249 524 248v485l0 0z m-525-240l-175 95 424 197 191-85-440-207z m175 325l-417-194-143 77 434 173 126-56z m-585-189v16l379-205 1-351-380 199v341z m441-543l-1 353 430 203v-353l-429-203z" horiz-adv-x="1000" />

<glyph glyph-name="a_085_package_filled" unicode="&#xe854;" d="M475 363l-175 95 424 197 191-85-440-207z m175 325l-417-194-143 77 434 173 126-56z m-585-189v16l379-204 1-352-380 200v340z m441-543l-1 354 430 202v-352l-429-204z" horiz-adv-x="1000" />

<glyph glyph-name="a_086_package_open_line" unicode="&#xe855;" d="M918 436l82 239-260-113-192 94-74 168-474-160 97-220 8-328 360-222 29-18 31 18 395 225-2 317z m-54 27l-309-136 29 101 315 137-35-102z m-330 9l-50-176-4-2-286 154 331 153 143-71-134-58z m-93 278l45-101-344-159-61 138 360 122z m-277-600l-6 249 292-156 12-277-298 184z m358-189l-12 281 348 153 2-241-338-193z" horiz-adv-x="1000" />

<glyph glyph-name="a_087_package_open_filled" unicode="&#xe856;" d="M874 458l-309-136 29 101 315 137-35-102z m-330 9l-50-177-4-1-286 154 331 152 143-70-134-58z m-93 277l45-100-344-159-61 137 360 122z m-277-600l-6 250 292-157 12-276-298 183z m358-188l-12 280 348 154 2-241-338-193z" horiz-adv-x="1000" />

<glyph glyph-name="a_088_wlan" unicode="&#xe857;" d="M609 30c0-61-49-109-109-109s-109 48-109 109c0 60 49 108 109 108s109-48 109-108z m-557 514c127 91 281 144 448 144 167 0 322-53 448-144l52 75c-141 101-314 160-500 160-186 0-359-59-500-160l52-75z m126-180c91 65 202 104 322 104 120 0 231-39 322-104l52 75c-105 76-234 120-374 120-139 0-268-44-374-120l52-75z m122-174c56 42 125 66 200 66 75 0 144-24 200-66l52 75c-70 52-158 82-252 82-94 0-181-30-252-82l52-75z" horiz-adv-x="1000" />

<glyph glyph-name="a_089_home_wlan_line" unicode="&#xe858;" d="M581-150h349v779l-430 221-430-221v-779h349 162z m-233 71h-207v665l359 184 0 0 0 0 359-184v-665h-207-304z m213 173c0-34-27-61-61-61-34 0-61 27-61 61 0 33 27 61 61 61 34 0 61-28 61-61z m-341 330c79 56 176 90 280 90s201-34 280-90l-29-42c-71 51-158 81-251 81-93 0-180-30-250-81l-30 42z m71-101c59 42 131 68 209 68 78 0 150-26 209-68l-29-42c-51 37-113 58-180 58s-129-21-180-58l-29 42z m68-97c40 29 88 46 141 46 53 0 102-17 141-46l-29-42c-31 23-70 37-112 37-42 0-81-14-112-37l-29 42z" horiz-adv-x="1000" />

<glyph glyph-name="a_090_home_wlan_filled" unicode="&#xe859;" d="M500 850l-430-221v-779h349 162 349v779l-430 221z m0-817c-34 0-61 27-61 61s27 61 61 61c34 0 61-28 61-61s-27-61-61-61z m112 151c-31 23-70 37-112 37s-81-14-112-37l-29 42c40 29 88 46 141 46 53 0 102-17 141-46l-29-42z m68 97c-51 37-113 58-180 58s-129-21-180-58l-29 42c59 42 131 68 209 68s150-26 209-68l-29-42z m71 101c-71 51-158 81-251 81-93 0-180-30-250-81l-30 42c79 56 176 90 280 90s201-34 280-90l-29-42z" horiz-adv-x="1000" />

<glyph glyph-name="b_091_battery_full_line" unicode="&#xe85a;" d="M1000 493h-101v114h-899v-514h899v114h101v286z m-171-216v-70-44h-759v374h759v-44-70h70 31v-146h-31-70z m-56-61h-645v268h645v-268z" horiz-adv-x="1000" />

<glyph glyph-name="b_092_battery_full_filled" unicode="&#xe85b;" d="M899 493v114h-899v-514h899v114h101v286h-101z m31-216h-31-39v146h39 31v-146z" horiz-adv-x="1000" />

<glyph glyph-name="b_093_battery_two_third_line" unicode="&#xe85c;" d="M1000 493h-101v114h-899v-514h899v114h101v286z m-171-216v-70-44h-759v374h759v-44-70h70 31v-146h-31-70z m-191-61h-510v268h510v-268z" horiz-adv-x="1000" />

<glyph glyph-name="b_094_battery_two_third_filled" unicode="&#xe85d;" d="M899 493v114h-899v-514h899v114h101v286h-101z m-312-314h-295-213-2v343h2 213 295v-343z" horiz-adv-x="1000" />

<glyph glyph-name="b_095_battery_one_third_line" unicode="&#xe85e;" d="M1000 493h-101v114h-899v-514h899v114h101v286z m-171-216v-70-44h-759v374h759v-44-70h70 31v-146h-31-70z m-485-61h-213v268h213v-268z" horiz-adv-x="1000" />

<glyph glyph-name="b_096_battery_one_third_filled" unicode="&#xe85f;" d="M899 493v114h-899v-514h899v114h101v286h-101z m-607-315h-213v344h213v-344z" horiz-adv-x="1000" />

<glyph glyph-name="b_097_battery_empty_line" unicode="&#xe860;" d="M1000 493h-101v114h-899v-514h899v114h101v286z m-171-216v-70-44h-759v374h759v-44-70h70 31v-146h-31-70z" horiz-adv-x="1000" />

<glyph glyph-name="b_098_battery_empty_filled" unicode="&#xe861;" d="M899 493v114h-899v-514h899v114h101v286h-101z m-76-315h-745v344h745v-344z" horiz-adv-x="1000" />

<glyph glyph-name="b_099_battery_charging_line" unicode="&#xe862;" d="M899 493v114h-899v-233-8-273h899v114h101v286h-101z m31-216h-31-70v-70-44h-759v163l161 1v-52l79-11 49-31h137l0 49 91 0 0 40-91 0 1 56 91 0 0 40-91 0 0 47-137 2-50-25-79-9v-59l-161 0v163h759v-44-70h70 31v-146z m-653 32v87l49 6 41 21 83-2 0-144-82 0-41 26-50 6z" horiz-adv-x="1000" />

<glyph glyph-name="b_100_battery_charging_filled" unicode="&#xe863;" d="M899 493v114h-899v-233l231 0v59l79 9 50 25 137-2 0-47 91 0 0-40-91 0-1-56 91 0 0-40-91 0 0-49-137 0-49 31-79 11v52l-231-1v-233h899v114h101v286h-101z m-622-184v88l49 5 41 21 83-2 0-144-82 0-41 26-50 6z" horiz-adv-x="1000" />

<glyph glyph-name="b_101_power_supply_line" unicode="&#xe864;" d="M0 377l393 1v113l135 16 84 43 233-4 0-80 155 0 0-55-155 0 0-122 154 0 0-55-155 0 0-84-233 0-84 53-134 18v102l-393 0 0 54 0 0z m447 66l0 0v-174l99-13 80-51 164 0 0 287-165 3-81-41-97-11z" horiz-adv-x="1000" />

<glyph glyph-name="b_102_power_supply_filled" unicode="&#xe865;" d="M0 377l393 1v113l135 16 84 43 233-4 0-80 155 0 0-55-155 0 0-122 154 0 0-55-155 0 0-84-233 0-84 53-134 18v102l-393 0 0 54 0 0z" horiz-adv-x="1000" />

<glyph glyph-name="b_103_limit" unicode="&#xe866;" d="M0 471v114h1000v-114h-1000z m250-357l252 153 248-150v158l-248 151-252-153v-159z" horiz-adv-x="1000" />

<glyph glyph-name="b_104_humidity_line" unicode="&#xe867;" d="M692 465c-21 27-43 56-64 89-19 31-35 63-48 92-19 46-48 138-48 138l-16 60-41-103c0-1-43-108-111-206-9-13-18-26-28-40-70-96-156-215-141-349 10-81 41-154 87-207 56-62 131-95 218-95 175 0 307 146 307 339 0 131-56 204-115 282z m-192-537c-63 0-115 22-155 67-36 40-59 97-67 160-11 102 61 203 125 291l2 2c9 13 19 27 28 40 29 41 53 83 72 120 16-36 34-69 53-99 22-36 45-66 67-95 57-75 98-128 98-231 0-148-94-255-223-255z" horiz-adv-x="1000" />

<glyph glyph-name="b_105_humidity_filled" unicode="&#xe868;" d="M692 471c-21 27-43 56-64 89-19 32-35 63-48 92-19 46-48 138-48 138l-16 60-41-103c0-1-43-108-111-205-9-13-18-27-28-41-70-96-156-215-141-349 10-80 41-154 87-207 56-62 131-95 218-95 175 0 307 146 307 339 0 131-56 204-115 282z" horiz-adv-x="1000" />

<glyph glyph-name="b_106_humidity_2_line" unicode="&#xe869;" d="M832 254c-13 18-28 36-41 58-13 20-23 41-31 59-13 30-31 90-31 90l-11 39-27-67c0 0-27-70-72-133-6-9-12-18-18-26-45-63-101-140-91-228 6-52 26-100 56-134 36-41 85-62 141-62 114 0 200 95 200 221 0 85-36 132-75 183z m-125-350c-41 0-75 15-100 44-23 26-39 63-43 104-8 67 39 132 81 189l1 2c6 9 12 17 18 25 19 27 35 55 47 79 10-23 22-45 34-64 15-24 29-43 44-62 37-49 63-84 63-150 0-97-61-167-145-167z m-106 759c-10 13-21 27-31 44-10 15-18 31-24 45-9 23-23 68-23 68l-9 30-20-51c0 0-21-53-55-101-4-7-9-14-14-20-34-48-77-107-69-173 5-40 20-76 43-102 27-31 64-47 107-47 87 0 152 72 152 167 0 65-28 101-57 140z m-95-257c-28 0-52 10-70 30-16 19-27 45-30 75-6 47 29 95 60 137l1 2c5 7 9 13 13 19 11 15 21 31 29 45 6-12 12-23 19-34 11-18 23-34 34-48 27-35 46-61 46-109 0-68-43-117-102-117z m-142-52c-12 15-24 31-35 49-10 17-19 34-26 49-10 25-26 75-26 76l-9 32-22-56c0 0-23-58-60-111-5-7-10-15-16-22-37-52-84-117-76-190 5-43 22-83 48-112 30-34 70-52 117-52 95 0 167 80 167 185 0 70-30 110-62 152z m-105-282c-31 0-57 11-77 33-18 21-30 50-34 82-6 52 33 105 66 152l3 3c4 7 9 13 14 20 11 17 22 34 31 50 7-14 14-26 21-38 13-20 26-37 37-52 30-40 52-68 52-120 0-76-48-130-113-130z" horiz-adv-x="1000" />

<glyph glyph-name="b_107_humidity_2_filled" unicode="&#xe86a;" d="M832 254c-13 18-28 36-41 58-13 20-23 41-31 59-13 30-31 90-31 90l-11 39-27-67c0 0-27-70-72-133-6-9-12-18-18-26-45-63-101-140-91-228 6-52 26-100 56-134 36-41 85-62 141-62 114 0 200 95 200 221 0 85-36 132-75 183z m-231 408c-10 14-21 28-31 45-10 15-18 31-24 45-9 23-23 68-23 68l-9 30-20-51c0 0-21-53-55-101-4-7-9-14-14-20-34-48-77-107-69-173 5-40 20-76 43-102 27-31 64-47 107-47 87 0 152 72 152 167 0 65-28 101-57 139z m-237-308c-12 15-24 31-35 49-10 17-19 34-26 49-10 25-26 75-26 76l-9 32-22-56c0 0-23-58-60-111-5-7-10-15-16-22-37-52-84-117-76-190 5-43 22-83 48-112 30-34 70-52 117-52 95 0 167 80 167 185 0 70-30 110-62 152z" horiz-adv-x="1000" />

<glyph glyph-name="b_108_water_supply_line" unicode="&#xe86b;" d="M213 375c25 31 58 49 98 49h577v61h-294v131h121v61h-364v-61h120v-131h-160c-60 0-111-29-145-71-35-42-53-98-53-156v-235h282v55 83c0 14 1 24 2 30 1 4 2 6 3 7 1 1 0 1 4 2 4 2 12 3 24 3h460v15 46 15h-460c-13 0-26-1-38-4-9-2-18-6-27-12-12-10-20-24-24-39-4-14-6-30-6-48v-15-77h-159v174c0 45 15 87 39 117z" horiz-adv-x="1000" />

<glyph glyph-name="b_109_water_supply_filled" unicode="&#xe86c;" d="M888 485h-294v131h121v61h-364v-61h120v-131h-160c-60 0-111-29-145-71-35-42-53-98-53-156v-235h282v55 83c0 14 1 24 2 30 1 4 2 6 3 7 1 1 0 1 4 2 4 2 12 3 24 3h460v15 267z" horiz-adv-x="1000" />

<glyph glyph-name="b_110_water_supply_on_line" unicode="&#xe86d;" d="M213 548c25 30 58 48 98 48h577v62h-294v131h121v61h-364v-61h120v-131h-160c-60 0-111-29-145-71-35-43-53-98-53-156v-235h282v55 83c0 13 1 23 2 29 1 5 2 7 3 8 1 1 0 1 4 2 4 2 12 3 24 3h460v15 46 15h-460c-13 0-26-1-38-4-9-2-18-6-27-12-12-10-20-24-24-39-4-14-6-30-6-48v-15-77h-159v174c0 45 15 87 39 117z m100-524c-5 8-12 16-17 25-6 9-10 18-14 26-5 12-13 38-13 38l-5 17-11-29c-1 0-12-30-31-57-3-4-6-8-9-12-19-26-43-60-39-98 3-22 11-43 25-57 15-18 36-27 61-27 49 0 86 41 86 95 0 37-16 57-33 79z" horiz-adv-x="1000" />

<glyph glyph-name="b_111_water_supply_on_filled" unicode="&#xe86e;" d="M888 658h-294v131h121v61h-364v-61h120v-131h-160c-60 0-111-29-145-71-35-43-53-98-53-156v-235h282v55 83c0 13 1 23 2 29 1 5 2 7 3 8 1 1 0 1 4 2 4 2 12 3 24 3h460v15 267z m-575-634c-5 8-12 16-17 25-6 9-10 18-14 26-5 12-13 38-13 38l-5 17-11-29c-1 0-12-30-31-57-3-4-6-8-9-12-19-26-43-60-39-98 3-22 11-43 25-57 15-18 36-27 61-27 49 0 86 41 86 95 0 37-16 57-33 79z" horiz-adv-x="1000" />

<glyph glyph-name="b_112_lightning_line" unicode="&#xe86f;" d="M639 685l-52-13 38 96 32 77 4 5h-2-57-174-56l-10-43-85-349-23-92 91 28 87 27-98-571 367 761 45 101-107-27z m-185-472l50 287-175-54 85 349h165l-82-201 155 39-198-420z" horiz-adv-x="1000" />

<glyph glyph-name="b_113_lightning_filled" unicode="&#xe870;" d="M639 685l-52-13 38 96 32 77 4 5h-2-57-174-56l-10-43-85-349-23-92 91 28 87 27-98-571 367 761 45 101-107-27z" horiz-adv-x="1000" />

<glyph glyph-name="b_114_cloud_line" unicode="&#xe871;" d="M812 55h-655c-90 0-157 93-157 177 0 78 43 135 114 152 1 20 5 39 18 66 29 60 82 90 156 90 7 0 13 0 19-1 3 0 6 0 9 0 17 0 29 0 38 0 35 65 112 107 205 107 10 0 20-1 30-2 114-11 189-85 206-199 13 0 27-1 40-1 112-6 168-106 165-203-3-105-85-186-188-186z m0 65c67 0 120 54 122 123 2 45-18 131-102 135-13 1-27 1-39 2l-55 2-8 54c-13 85-64 134-147 143-8 1-16 1-24 1-67 0-124-28-147-72l-19-34-77 0c-3 0-7 0-11 0-5 0-11 0-17 0-63 0-85-28-97-52-9-19-11-30-12-43l-4-48-46-11c-55-13-63-61-63-88 0-50 42-112 91-112h655z" horiz-adv-x="1000" />

<glyph glyph-name="b_115_cloud_filled" unicode="&#xe872;" d="M812 55h-655c-90 0-157 93-157 177 0 78 43 135 114 152 1 20 5 39 18 66 29 60 82 90 156 90 7 0 13 0 19-1 3 0 6 0 9 0 17 0 29 0 38 0 35 65 112 107 205 107 10 0 20-1 30-2 114-11 189-85 206-199 13 0 27-1 40-1 112-6 168-106 165-203-3-105-85-186-188-186z" horiz-adv-x="1000" />

<glyph glyph-name="b_116_rainy_line" unicode="&#xe873;" d="M816 264h-655c-90 0-157 93-157 176 0 77 43 134 114 150 1 21 5 40 18 67 29 58 82 88 156 88 7 0 13 0 19 0 3 0 6 0 9 0 17 0 29 0 38 0 35 64 112 105 205 105 10 0 20 0 30-1 114-12 189-84 206-198 13 0 27-1 40-1 112-5 168-105 165-201-3-104-85-185-188-185z m0 65c67 0 120 53 122 121 2 45-18 131-102 135-13 1-27 1-39 1l-55 2-8 54c-13 84-64 134-147 142-8 1-16 1-24 1-67 0-124-27-147-71l-19-34-77 0c-3 0-7 0-11 0-5 0-11 0-17 0-63 0-85-28-97-52-9-19-11-30-12-43l-4-47-46-11c-55-13-63-60-63-87 0-50 42-111 91-111h655z m-459-222l-11 122-102-71c-20-15-32-39-30-64 3-26 19-48 42-58 23-11 50-8 71 6 21 15 33 40 30 65z m388 0l-11 122-102-71c-20-15-32-39-29-64 2-26 18-48 41-58 23-11 50-8 71 6 21 15 33 40 30 65z m-208-179l-12 122-101-71c-21-15-32-39-30-65 2-25 18-47 42-58 23-10 50-8 71 7 21 15 32 39 30 65z" horiz-adv-x="1000" />

<glyph glyph-name="b_117_rainy_filled" unicode="&#xe874;" d="M354 107l-11 122-101-71c-20-15-32-39-29-64 2-26 18-48 41-58 23-11 50-8 71 6 20 15 32 40 29 65z m385 0l-11 122-101-71c-20-15-32-39-29-64 2-26 18-48 41-58 23-11 50-8 71 6 20 15 32 40 29 65z m-207-179l-11 122-100-71c-21-15-32-39-30-65 2-25 18-47 41-58 23-10 50-8 71 7 20 15 32 39 29 65z m280 331h-655c-90 0-157 94-157 177 0 78 43 136 113 152 2 21 6 40 19 67 29 59 82 89 156 89 7 0 13 0 19 0 3 0 6 0 9 0 17 0 29 0 38 0 35 65 112 106 205 106 10 0 20 0 30-1 114-12 189-85 206-199 13-1 27-1 40-2 112-5 168-106 165-203-3-104-85-186-188-186z" horiz-adv-x="1000" />

<glyph glyph-name="b_118_snowy_line" unicode="&#xe875;" d="M816 264h-655c-90 0-157 93-157 176 0 77 43 134 114 150 1 21 5 40 18 67 29 58 82 88 156 88 7 0 13 0 19 0 3 0 6 0 9 0 17 0 29 0 38 0 35 64 112 105 205 105 10 0 20 0 30-1 114-12 189-84 206-198 13 0 27-1 40-1 112-5 168-105 165-201-3-104-85-185-188-185z m0 65c67 0 120 53 122 121 2 45-18 131-102 135-13 1-27 1-39 1l-55 2-8 54c-13 84-64 134-147 142-8 1-16 1-24 1-67 0-124-27-147-71l-19-34-77 0c-3 0-7 0-11 0-5 0-11 0-17 0-63 0-85-28-97-52-9-19-11-30-12-43l-4-47-46-11c-55-13-63-60-63-87 0-50 42-111 91-111h655z m-515-122c-42 0-76-34-76-75 0-42 34-76 76-76s76 34 76 76c0 41-34 75-76 75z m372-15c-42 0-76-33-76-75 0-42 34-76 76-76 42 0 76 34 76 76 0 42-34 75-76 75z m-207-191c-43 0-77-34-77-75 0-42 34-76 77-76 42 0 76 34 76 76 0 41-34 75-76 75z" horiz-adv-x="1000" />

<glyph glyph-name="b_119_snowy_filled" unicode="&#xe876;" d="M812 259h-655c-90 0-157 94-157 177 0 78 43 136 113 152 2 21 6 40 19 67 29 59 82 89 156 89 7 0 13 0 19 0 3 0 6 0 9 0 17 0 29 0 38 0 35 65 112 106 205 106 10 0 20 0 30-1 114-12 189-85 206-199 13-1 27-1 40-2 112-5 168-106 165-203-3-104-85-186-188-186z m-513-52c-42 0-76-34-76-75 0-42 34-76 76-76s75 34 75 76c0 41-34 75-75 75z m369-15c-42 0-76-33-76-75 0-42 34-76 76-76 41 0 75 34 75 76 0 42-34 75-75 75z m-206-191c-42 0-76-34-76-75 0-42 34-76 76-76 42 0 76 34 76 76 0 41-34 75-76 75z" horiz-adv-x="1000" />

<glyph glyph-name="b_120_thunderstorm_line" unicode="&#xe877;" d="M797 109l-12 121-99-70c-21-15-32-39-30-64 3-25 18-47 41-58 23-10 50-8 70 7 21 14 32 39 30 64z m-219-131l-11 121-100-70c-20-15-32-39-29-65 2-25 18-47 41-57 22-11 49-8 70 6 20 15 32 40 29 65z m255 672c-13 0-27 1-40 1-17 114-91 186-204 198-10 1-20 1-30 1-93 0-170-41-204-106-9 1-21 1-38 1-2 0-5 0-9 0-5 0-12 0-18 0-75 0-127-30-155-89-13-27-17-46-19-66-70-17-113-73-113-151 0-83 67-176 156-176h151l-35-144-10-41 40 13 38 12-43-253 162 337 20 45-47-12-23-6 17 42 3 7h378c102 0 184 81 187 185 2 96-53 196-164 202z m99-200c-2-68-56-122-122-122h-651c-49 0-91 61-91 111 0 27 9 75 63 87l46 11 4 48c1 13 3 24 13 43 11 24 33 52 96 52 6 0 11 0 16 0 4-1 8-1 11-1l77 0 18 35c24 44 80 71 147 71 8 0 15 0 23-1 83-9 134-58 147-142l8-54 54-2c12 0 26-1 39-1 83-4 103-90 102-135z" horiz-adv-x="1000" />

<glyph glyph-name="b_121_thunderstorm_filled" unicode="&#xe878;" d="M797 109l-12 121-99-70c-21-15-32-39-30-64 3-25 18-47 41-58 23-10 50-8 70 7 21 14 32 39 30 64z m-219-131l-11 121-100-70c-20-15-32-39-29-64 2-26 18-48 41-58 22-11 49-8 70 6 20 15 32 40 29 65z m255 672c-13 0-27 1-40 1-17 114-91 186-204 198-10 1-20 1-30 1-93 0-170-41-204-106-9 0-21 0-38 0-2 0-5 1-9 1-5 0-11 0-18 0-75 0-127-30-155-89-13-27-17-46-19-66-70-17-113-73-113-151 0-83 67-176 156-176h151l-35-144-10-41 40 13 38 12-43-253 162 337 20 45-47-12-23-6 17 42 3 7h378c102 0 184 81 187 185 2 96-53 196-164 202z" horiz-adv-x="1000" />

<glyph glyph-name="b_122_windy_line" unicode="&#xe879;" d="M649-114c-67 0-115 40-115 108 0 51 48 97 112 97v-66c-26 0-46-14-46-31 0-25 13-43 49-43 53 0 78 24 81 77 2 31-4 53-18 67-16 18-45 26-87 26h-514v66h514c60 0 106-16 135-47 27-28 39-67 36-117-6-87-59-137-147-137z m351 524c-3-105-85-186-188-186h-655c-90 0-157 93-157 177 0 78 43 135 114 152 1 20 5 39 18 66 29 60 82 90 156 90 7 0 13 0 19-1 3 0 6 0 9 0 17 0 29 0 38 0 35 65 112 106 205 106 10 0 20 0 30-1 115-11 189-85 206-199 13 0 27-1 40-1 112-6 168-106 165-203z m-168 137c-13 1-27 1-39 2l-55 2-8 54c-13 85-64 134-147 143-8 1-16 1-24 1-67 0-124-28-147-72l-19-34-77 0c-3 0-7 0-11 0-5 0-11 0-17 0-63 0-85-28-97-52-9-19-11-30-12-43l-4-48-46-11c-55-13-63-61-63-88 0-50 42-112 91-112h188l235 3c25 0 49 11 66 30 1 1 1 2 2 2 4 5 7 9 9 14l1 2c1 0 1 1 1 2 2 4 4 8 6 14l1 5c2 7 3 14 3 20 0 49-40 89-89 89-25 0-50-11-67-29-16-16-24-38-22-59l-79-5c-3 44 13 86 44 118 32 34 77 54 124 54 92 0 168-76 168-168 0-12-2-25-5-38 0-3-1-6-2-9l-1-1c-2-9-6-18-10-26-1-2-2-4-3-6l-1-1c-1-3-3-6-5-9l-1-2h92c67 0 120 54 122 123 2 45-18 131-102 135z" horiz-adv-x="1000" />

<glyph glyph-name="b_123_windy_filled" unicode="&#xe87a;" d="M650-113c-67 0-115 40-115 108 0 51 48 97 112 97v-66c-26 0-46-14-46-31 0-25 13-43 49-43 52 0 77 24 81 76 2 31-4 53-18 68-16 17-46 26-87 26h-513v66h513c60 0 106-16 135-47 26-28 38-67 35-117-5-87-59-137-146-137z m163 337c102 0 184 82 187 186 3 96-53 197-164 202-14 1-28 1-41 2-17 113-91 186-205 198-10 1-20 1-30 1-92 0-170-41-204-106-10 0-22 0-38 0-3 0-6 0-9 1-6 0-12 0-19 0-74 0-127-30-155-89-13-27-18-46-19-67-70-17-116-56-116-134 0-84 100-129 189-129h158l234 3c25 0 49 11 66 30 1 1 1 2 2 2 4 5 6 9 9 14l1 2c0 0 1 1 1 2 2 4 4 8 5 14l2 5c2 7 3 14 3 20 0 49-40 88-89 88-25 0-50-10-67-28-15-17-23-38-22-60l-79-4c-2 44 13 86 44 118 32 34 77 53 124 53 92 0 167-75 167-167 0-13-1-25-4-38-1-3-2-6-3-9l0-1c-3-9-6-18-10-26-1-2-2-4-3-6l-1-1c-2-3-11-18-14-21-35-42-60-55-60-55h160" horiz-adv-x="1000" />

<glyph glyph-name="b_124_foggy_line" unicode="&#xe87b;" d="M1000 217h-830v72h830v-72z m-170-58h-830v-73h830v73z m170 260h-1000v-72h1000v72z m-14-1h-65c-10 46-36 91-97 93-13 1-26 3-39 3l-53 2-8 53c-13 84-63 132-145 141-8 0-15 1-23 1-66 0-122-27-145-71l-18-34-76 0c-3 0-7 0-11 1-5 0-10 0-16 0-63 0-84-28-95-52-9-18-12-30-13-42l-3-48-46-11c-25-6-41-21-50-36h-69c15 53 52 86 104 99 2 20 6 40 19 66 28 59 79 88 153 88 6 0 13 0 18 0 3 0 6 0 9 0 16 0 28 0 37 0 34 63 111 104 202 104 10 0 20-1 29-2 113-11 186-83 203-195 12-1 26-2 39-2 94-5 147-74 159-158z" horiz-adv-x="1000" />

<glyph glyph-name="b_125_foggy_filled" unicode="&#xe87c;" d="M167 289h833v-75h-833v75z m-167-204h833v76h-833v-76z m986 333c0 1 0 1 0 1-12 83-66 152-159 157-13 0-27 1-39 2-17 112-90 184-203 195-9 1-19 2-29 2-91 0-168-41-202-104-9 0-21 0-37 0-3 0-6 0-9 0-5 0-12 0-18 0-74 0-125-29-153-88-13-26-17-46-19-66-52-13-89-45-104-98 0 0 0 0 0-1h-14v-68h1000v68h-14z" horiz-adv-x="1000" />

<glyph glyph-name="b_126_frost_line" unicode="&#xe87d;" d="M1000 295l-179-83 138-77-11-19 1-1-21-35-1 1-7-13-139 78 17-196-41-3-19 224-200 113v-225l188-130-23-33-165 114v-160h-19-41-18v157l-161-111-23 33 184 127v228l-197-110-20-227-41 3 17 200-143-80-38 67 138 77-176 81 17 36 202-93 201 112-198 112-205-94-17 36 179 83-140 79 39 66 141-80-17 197 41 3 19-224 198-112v228l-184 127 23 33 161-111v157h78v-160l165 114 23-33-188-130v-225l200 112 19 224 41-3-17-197 140 78 9-15 1 0 20-35-1 0 10-17-138-77 178-82-17-36-205 94-201-112 201-113 205 94 17-36z" horiz-adv-x="1000" />

<glyph glyph-name="b_127_frost_filled" unicode="&#xe87e;" d="M818 487l134 77c31-65 48-138 48-214 0-77-17-150-49-216l-134 77 177 84-17 36-203-95-198 114 199 113 202-95 17 37-176 82z m134 77m-38 67m-213 176l23-33-187-131v-227l198 113 19 226 41-4-17-198 136 78c-83 123-220 207-377 219v-157l164 114z m-241 43m77 0m-451-218m-38-67m-1-427m38-68m120 681l41 4 19-226 195-112v229l-182 128 23 33 159-111v154c-155-12-291-96-374-218l136-78-17 197z m746-617m-27-56m-11-11m-118-119l-41-4-19 226-198 113v-226l187-131-23-33-164 114v-157c156 11 292 95 376 217l-135 78 17-197z m-258-98m-77 0m-454 445l17 36 200-94 198 113-196 113-202-95-17 37 176 83-134 77c-31-65-48-138-48-215 0-76 17-148 47-212l132 75-173 82z m295-402l-23 33 182 128v230l-195-111-19-229-41 4 18 201-138-79c83-123 219-207 375-220v154l-159-111z" horiz-adv-x="1000" />

<glyph glyph-name="b_128_sunny_line" unicode="&#xe87f;" d="M501 549c53 0 103-21 141-59 37-37 58-87 58-141 0-53-21-103-58-141-38-37-88-58-141-58-54 0-104 20-141 58-38 38-59 88-59 141 0 53 21 103 59 141 37 38 87 59 141 59m34 301h-69v-201h69v201l0 0z m295-124l-142-142 49-49 142 141-49 50 0 0z m-669-7l-48-51 146-137 48 50-146 138 0 0z m340-110c-70 0-135-27-184-76-47-47-76-112-76-184 0-72 29-137 76-184 47-47 112-76 184-76 69 0 135 27 183 76 48 47 77 112 77 184 0 72-29 137-77 184-47 47-112 76-183 76l0 0z m499-225h-200v-70h200v70l0 0z m-800 0h-200v-69l200-1v70l0 0z m548-205l-46-52 151-132 46 52-151 132 0 0z m-486-14l-143-140 48-50 143 140-48 50 0 0z m273-114h-69v-200h69v200l0 0z" horiz-adv-x="1000" />

<glyph glyph-name="b_129_sunny_filled" unicode="&#xe880;" d="M501 609c71 0 136-29 183-76 48-47 77-112 77-184 0-72-29-137-77-184-48-49-114-76-183-76-72 0-137 29-184 76-47 47-77 112-77 184 0 72 30 137 77 184 49 49 114 76 184 76z m236-74l142 141-49 50-142-142 49-49z m-202 114v201h-69v-201h69z m-335-265h-200v-69l200-1v70z m600-70h200v70h-200v-70z m-687 354l146-137 48 50-146 138-48-51z m422-818v201h-69v-200h69z m364 197l-151 132-46-52 151-132 46 52z m-732-72l143 140-48 50-143-140 48-50z" horiz-adv-x="1000" />

<glyph glyph-name="b_130_sundown_line" unicode="&#xe881;" d="M0 490v55h1000v-55h-371c8-17 12-35 12-55 0-39-16-74-41-100-27-26-63-41-100-41-39 0-74 16-100 41-25 26-41 61-41 100 0 20 4 38 12 55h-371z m500-231c-6 0-13 0-19 1v-105h38v105c-6-1-13-1-19-1z m-126 53l-69-69 26-26 72 71c-11 7-20 15-29 24z m-45 81c-3 12-5 25-5 37h-81v-37h86z m268-105l72-71 26 26-69 69c-8-9-18-17-29-24z m74 105h86v37h-81c0-12-2-25-5-37z" horiz-adv-x="1000" />

<glyph glyph-name="b_131_sunrise_line" unicode="&#xe882;" d="M1000 210v-55h-1000v55h371c-8 17-12 35-12 55 0 39 16 74 41 100 27 26 63 41 100 41 39 0 74-16 100-41 25-26 41-61 41-100 0-20-4-38-11-55h370z m-500 232c6 0 13-1 19-1v104h-38v-104c6 0 13 1 19 1z m126-54l69 69-26 26-72-71c11-7 20-15 29-24z m45-81c3-12 5-25 5-37h81v37h-86z m-268 105l-72 71-26-26 69-69c9 9 18 17 29 24z m-74-105h-86v-37h81c0 12 2 25 5 37z" horiz-adv-x="1000" />

<glyph glyph-name="b_132_spinner_line" unicode="&#xe883;" d="M125 350h-123c0 0 0 1 0 1 1 275 224 498 498 499v-122c-207-2-375-170-375-377 0-1 0-1 0-1z m752-1c-1-207-165-375-377-377v-122c280 1 498 225 499 499 0 0 1 1 1 1h-122c0 0-1 0-1-1z" horiz-adv-x="1000" />

<glyph glyph-name="b_133_add_user_line" unicode="&#xe886;" d="M128-49c0 66-1 133 0 200 0 73 26 132 81 182 0 1 62 52 160 52 84 0 124-25 126-26l1 0c3-2 6-3 8-5h54v37c-9 8-18 15-29 22-1 1-19 14-57 24 11 7 21 15 30 25 46 46 67 102 68 164 0 26-3 49-10 72-16 53-45 96-93 125-48 29-99 35-152 17-47-17-81-48-106-90-29-51-38-106-28-163 10-60 38-110 89-146 2-2 3-3 5-4-60-17-99-46-110-56-68-62-103-139-104-230 0-95 0-191 0-286v-15h8c200 0 399 0 599 0 9 0 9 0 9 10 0 26 0 25 0 55l-549 0c0 12 0 24 0 36z m117 647c-7 43-1 82 21 119 18 31 41 51 70 61 14 5 27 7 39 7 20 0 39-6 58-17 32-20 53-49 65-89 4-15 7-31 7-53-1-49-17-87-48-119-20-20-43-31-69-34-5-1-10-1-16-1-23 0-44 7-64 21-35 25-55 59-63 105z m513-445v-182h-144v182h-182v152h182v174h144v-174h181v-152h-181z" horiz-adv-x="1000" />

<glyph glyph-name="b_134_add_user_filled" unicode="&#xe887;" d="M758 153v-182h-144v182h-182v152h182v174h144v-174h181v-152h-181z m-146-235h-51v53 129h-129-53v50 151 57h53 129v36c-8 7-18 13-28 19-1 1-21 14-59 24 11 7 20 15 29 25 46 46 66 102 67 164 0 26-3 49-10 72-16 53-45 96-93 125-47 29-98 35-151 17-47-17-81-48-105-90-29-51-38-106-29-163 11-60 39-110 89-146 2-2 4-3 5-4-59-17-99-46-110-56-67-62-103-138-103-230-1-95-2-190-2-285v-16h11c198 0 396 0 595 0 9 0 8 0 8 10 0 19 0 35 0 58h-63z m-303 575c-35 25-55 59-63 105-7 43 0 82 21 119 18 31 41 51 70 61 13 5 26 7 39 7 19 0 38-6 57-17 32-20 53-49 65-89 4-15 7-31 7-53-1-48-17-87-48-118-20-20-42-32-68-35-6-1-11-1-16-1-23 0-44 7-64 21z m449-340v-182h-144v182h-182v152h182v174h144v-174h181v-152h-181z m-146-235h-51v53 129h-129-53v50 151 57h53 129v36c-8 7-18 13-28 19-1 1-21 14-59 24 11 7 20 15 29 25 46 46 66 102 67 164 0 26-3 49-10 72-16 53-45 96-93 125-47 29-98 35-151 17-47-17-81-48-105-90-29-51-38-106-29-163 11-60 39-110 89-146 2-2 4-3 5-4-59-17-99-46-110-56-67-62-103-138-103-230-1-95-2-190-2-285v-16h11c198 0 396 0 595 0 9 0 8 0 8 10 0 19 0 35 0 58h-63z m-303 575c-35 25-55 59-63 105-7 43 0 82 21 119 18 31 41 51 70 61 13 5 26 7 39 7 19 0 38-6 57-17 32-20 53-49 65-89 4-15 7-31 7-53-1-48-17-87-48-118-20-20-42-32-68-35-6-1-11-1-16-1-23 0-44 7-64 21z m449-340v-182h-144v182h-182v152h182v174h144v-174h181v-152h-181z m-146-235h-51v53 129h-129-53v50 151 57h53 129v36c-8 7-18 13-28 19-1 1-21 14-59 24 11 7 20 15 29 25 46 46 66 102 67 164 0 26-3 49-10 72-16 53-45 96-93 125-47 29-98 35-151 17-47-17-81-48-105-90-29-51-38-106-29-163 11-60 39-110 89-146 2-2 4-3 5-4-59-17-99-46-110-56-67-62-103-138-103-230-1-95-2-190-2-285v-16h11c198 0 396 0 595 0 9 0 8 0 8 10 0 19 0 35 0 58h-63z m-303 575c-35 25-55 59-63 105-7 43 0 82 21 119 18 31 41 51 70 61 13 5 26 7 39 7 19 0 38-6 57-17 32-20 53-49 65-89 4-15 7-31 7-53-1-48-17-87-48-118-20-20-42-32-68-35-6-1-11-1-16-1-23 0-44 7-64 21z" horiz-adv-x="1000" />

<glyph glyph-name="b_135_service_line" unicode="&#xe912;" d="M727 789c18 0 36-2 53-6l-136-135-42-43 42-43 68-68 43-42 43 42 135 136c4-17 6-35 6-53 0-117-95-212-212-212-23 0-45 4-67 11l-36 12-27-26-434-435c-6-5-13-10-20-12l0-1-1 0c-6-2-13-3-21-3-33 0-60 27-60 60 0 7 1 15 3 21l1 0 0 1c2 7 7 14 12 20l435 434 26 27-12 36c-7 22-11 44-11 67 0 117 95 212 212 212m0 61c-150 0-272-122-272-273 0-30 5-59 14-87l-435-434c-11-12-20-26-26-42-5-13-8-28-8-43 0-67 54-121 121-121 15 0 30 3 43 8 16 6 30 15 42 26l434 435c28-9 57-14 87-14 151 0 273 122 273 272 0 58-18 112-49 156l-196-196-68 68 196 196c-44 31-98 49-156 49l0 0z" horiz-adv-x="1000" />

<glyph glyph-name="b_136_service_filled" unicode="&#xe913;" d="M999 587c0-144-118-261-262-261-28 0-56 4-83 13l-20 7-459-460-12-12c-10-8-21-14-33-18-9-3-20-5-30-5-55 0-99 44-99 99 0 10 2 20 5 30 4 12 10 23 18 32 0 1 0 1 0 1l13 12c0 0 0 1 0 1l459 458-7 20c-9 27-13 55-13 83 0 144 117 262 261 262 41 0 80-9 116-27l-205-205 119-119 205 205c18-36 27-75 27-116z" horiz-adv-x="1000" />

<glyph glyph-name="b_137_logout_line" unicode="&#xe914;" d="M667 570v280h-667v-833l333-167v167h334v212h-76v-137h-258v591l-181 91h439v-204h76z m-409 67v-664l-89 44-93 47v664l182-91z m663-233l-163 162v-110h-319v-114h319v-102l163 164z" horiz-adv-x="1000" />

<glyph glyph-name="b_138_logout_filled" unicode="&#xe915;" d="M591 570v204h-439l181-91v-591h258v137h76v-212h-334v-167l-333 167v833h667v-280h-76z m330-166l-163 162v-110h-319v-114h319v-102l163 164z" horiz-adv-x="1000" />

<glyph glyph-name="b_139_machine_line" unicode="&#xe916;" d="M966 797c-10 0-22-4-34-13l-17-12c-37-26-76-85-86-129l-1-5h-104c-10 0-19 0-28 0-14-1-27-1-41-1-466-19-600-229-639-343 0 0 0-1 0-1-6-18-10-34-12-46-2-8-3-17-3-25-1-7-1-12-1-12v-95c0-66 55-121 121-121h36c-26-12-43-38-43-68 0-42 34-76 75-76s76 34 76 76c0 30-17 56-43 68h282c0 4 0 8 0 11 0 17 2 34 6 50h-389c-33 0-60 27-60 60v94c0 1 0 4 0 8l0 0v1c0 6 1 13 2 18 2 12 6 24 10 35l1 3c0 0 0 1 0 1l0 0c36 106 160 284 584 301 13 1 26 1 39 1 9 0 18 0 27 0h153l10 48 1 5c6 25 29 62 51 84v-553h-79c19-18 34-38 46-61h64c16 0 30 14 30 30v619c0 31-14 48-34 48z m-146-682c-27 26-64 42-104 42-66 0-123-43-143-102-6-16-9-32-9-50 0-4 1-7 1-11 6-78 71-140 151-140s145 62 151 140c0 4 0 7 0 11 0 44-18 83-47 110z m-104-201c-46 0-85 35-90 80-1 4-1 7-1 11 0 19 5 35 15 50 16 25 44 41 76 41s60-16 76-41c10-15 15-31 15-50 0-4 0-7-1-11-5-45-44-80-90-80z m104 201c-27 26-64 42-104 42-66 0-123-43-143-102-6-16-9-32-9-50 0-4 1-7 1-11 6-78 71-140 151-140s145 62 151 140c0 4 0 7 0 11 0 44-18 83-47 110z m-104-201c-46 0-85 35-90 80-1 4-1 7-1 11 0 19 5 35 15 50 16 25 44 41 76 41s60-16 76-41c10-15 15-31 15-50 0-4 0-7-1-11-5-45-44-80-90-80z" horiz-adv-x="1000" />

<glyph glyph-name="b_140_machine_filled" unicode="&#xe917;" d="M867 5c0-4 0-7 0-11-6-78-71-140-151-140s-145 62-151 140c0 4-1 7-1 11 0 84 68 152 152 152s151-68 151-152z m65 779l-17-12c-37-26-76-85-86-129l-1-5h-104c-10 0-19 0-28 0-14-1-27-1-41-1-466-19-600-229-639-343 0 0 0-1 0-1-6-18-10-34-12-46-2-8-3-17-3-25-1-7-1-12-1-12v-95c0-66 55-121 121-121h36c-26-12-43-38-43-68 0-42 34-76 75-76s76 34 76 76c0 30-17 56-43 68h282c0 4 0 8 0 11 0 117 95 212 212 212 83 0 155-47 190-117h64c16 0 30 14 30 30v619c0 46-31 62-68 35z" horiz-adv-x="1000" />

<glyph glyph-name="b_141_paragraph" unicode="&#xe918;" d="M339 531c-47 34-79 76-79 133 0 119 88 186 250 186 71 0 156-15 211-46l-12-106c-64 29-126 42-192 42-76 0-116-26-116-70 0-108 357-110 357-340 0-62-31-125-98-162 46-34 79-76 79-132 0-119-87-186-249-186-70 0-156 15-210 46l11 106c64-29 126-42 191-42 77 0 116 26 116 70 0 108-356 111-356 341 0 60 31 123 97 160z m105-62c-46-19-69-48-69-83 0-66 78-105 180-156 47 19 70 49 70 84 0 65-79 104-181 155z" horiz-adv-x="1000" />

<glyph glyph-name="b_142_paragraph_circle" unicode="&#xe919;" d="M500-150c-276 0-500 224-500 500 0 276 224 500 500 500 276 0 500-224 500-500 0-276-224-500-500-500z m0 921c-232 0-421-189-421-421 0-232 189-421 421-421s421 189 421 421c0 232-189 421-421 421z m-98-311c-28 20-48 46-48 81 0 72 54 112 152 112 43 0 95-9 128-28l-7-64c-39 17-77 25-117 25-46 0-70-15-70-42 0-66 216-67 216-206 0-38-18-76-59-99 28-20 48-45 48-79 0-72-53-113-151-113-43 0-94 9-127 28l6 64c39-17 77-25 116-25 47 0 70 15 70 42 0 66-215 67-215 206 0 37 18 75 58 98z m64-38c-28-11-42-29-42-50 0-40 48-64 109-95 29 12 43 30 43 51 0 40-48 63-110 94z" horiz-adv-x="1000" />

<glyph glyph-name="b_143_paragraph_sign" unicode="&#xe91a;" d="M576 328c0-21-14-39-43-51-61 31-109 55-109 95 0 21 14 39 42 50 62-31 110-54 110-94z m424 22c0-276-224-500-500-500s-500 224-500 500 224 500 500 500 500-224 500-500z m-403-111c41 23 59 61 59 99 0 139-216 140-216 206 0 27 24 42 70 42 40 0 78-8 117-25l7 64c-33 19-85 28-128 28-98 0-152-40-152-112 0-35 20-61 48-81-40-23-58-61-58-98 0-139 215-140 215-206 0-27-23-42-70-42-39 0-77 8-116 25l-6-64c33-19 84-28 127-28 98 0 151 41 151 113 0 34-20 59-48 79z" horiz-adv-x="1000" />

<glyph glyph-name="b_144_wlan_three_quarter" unicode="&#xe91b;" d="M609 30c0-61-49-109-109-109s-109 48-109 109c0 60 49 108 109 108s109-48 109-108z m-431 334c91 65 202 104 322 104 120 0 231-39 322-104l52 75c-105 76-235 120-374 120-139 0-268-44-374-120l52-75z m122-174c56 42 125 66 200 66 75 0 144-24 200-66l52 75c-70 52-158 82-252 82-94 0-181-30-252-82l52-75z" horiz-adv-x="1000" />

<glyph glyph-name="b_145_wlan_half" unicode="&#xe91c;" d="M609 30c0-61-49-109-109-109s-109 48-109 109c0 60 49 108 109 108s109-48 109-108z m-309 160c56 42 125 66 200 66 75 0 144-24 200-66l52 75c-70 52-158 82-252 82-94 0-181-30-252-82l52-75z" horiz-adv-x="1000" />

<glyph glyph-name="b_146_wlan_one_quarter" unicode="&#xe91d;" d="M609 30c0-61-49-109-109-109s-109 48-109 109c0 60 49 108 109 108s109-48 109-108z" horiz-adv-x="1000" />

<glyph glyph-name="b_147_minimize_screen" unicode="&#xe920;" d="M636 77l0 0v-227h137v227h227v137h-227-137 0v-137z m137 409l0 0h227v137h-227v227h-137v-227-137 0h137z m-409 137l0 0v227h-137v-227h-227v-137h227 137 0v137z m-137-409l0 0h-227v-137h227v-227h137v227 137 0h-137z" horiz-adv-x="1000" />

<glyph glyph-name="b_148_dot_for_graph" unicode="&#xe921;" d="M1000 350c0-276-224-500-500-500s-500 224-500 500 224 500 500 500 500-224 500-500z" horiz-adv-x="1000" />

<glyph glyph-name="b_149_update" unicode="&#xe922;" d="M500 850c-276 0-500-224-500-500 0-276 224-500 500-500s500 224 500 500c0 276-224 500-500 500z m0-898l-298 375h169v315h258v-315h169l-298-375z" horiz-adv-x="1000" />

<glyph glyph-name="b_151_umbrella_filled" unicode="&#xe923;" d="M0 401c55 214 255 386 502 385 249-1 444-177 498-384-19 5-37 11-56 14-58 10-111-2-160-34-9-7-15-6-24 0-74 50-174 50-247 0-10-6-15-7-25 0-74 50-173 50-248-1-7-4-12-7-21-1-66 44-137 51-212 23-1-1-3-1-7-2z m467-81c0-89 0-179 0-268 0-9 0-17-2-25-7-33-39-54-72-48-31 6-48 26-52 63-2 18-16 31-33 31-18-1-31-15-31-34 0-63 54-121 116-125 77-5 138 51 138 129 1 94 0 189 0 283 0 4-1 7-2 16-20-24-40-22-62 1 0-12 0-17 0-23z" horiz-adv-x="1000" />

<glyph glyph-name="b_152_water" unicode="&#xe924;" d="M0 552l0 105c22-21 38-52 105-52 66 0 94 77 196 77 101 0 127-79 198-78 72 2 99 78 201 78 102 0 137-77 199-77 61 0 83 19 101 41l0-104c-28-18-28-37-102-37-73 0-120 74-198 74-78 0-110-75-201-74-90 1-119 73-198 73-79 0-125-73-196-73-72 0-83 29-105 47z m105-287c71 0 115 75 196 74 80-1 108-74 198-74 91 0 124 75 201 74 78-1 125-74 198-74 74 0 79 15 102 37l0 105c-18-22-40-43-102-42-61 1-97 77-198 78-100 1-128-78-201-78-72 0-94 78-198 78-104 0-128-79-196-78-68 0-83 31-105 52l0-104c22-18 33-48 105-48z m793-147c-61 1-97 78-198 78-100 0-128-78-201-78-72 0-94 78-198 78-104 0-130-79-196-78-67 0-83 31-105 52l0-104c21-21 33-48 105-48 72 0 115 75 196 74 80-1 91-74 198-74 107 0 124 75 201 74 78-1 125-74 198-74 68 0 80 16 102 37l0 105c-18-22-40-43-102-42z" horiz-adv-x="1000" />

<glyph glyph-name="b_150_umbrella" unicode="&#xe925;" d="M499 737l2 0c108-1 209-37 292-104 56-45 101-102 131-165-7 0-13 1-19 1-47 0-92-13-133-37-41 24-87 37-136 37-48 0-95-13-136-37-41 24-87 37-135 37-48 0-95-13-137-37-42 24-87 37-134 37-6 0-12 0-18-1 30 64 76 122 132 167 84 67 184 102 291 102m0 49c-246 0-445-172-499-385 4 1 6 1 7 2 30 11 59 17 87 17 43 0 85-13 125-40 4-3 7-4 9-4 4 0 8 2 12 5 38 26 81 38 125 38 43 0 86-12 123-37 5-3 9-5 12-5 4 0 8 2 13 5 36 25 80 37 123 37 44 0 87-12 124-37 5-3 8-5 12-5 4 0 8 1 12 5 38 25 78 37 121 37 13 0 26-1 39-3 19-3 37-9 56-14-54 207-249 383-498 384-1 0-2 0-3 0l0 0z m-32-466c0-89 0-179 0-268 0-9 0-17-2-25-7-33-39-54-72-48-31 6-48 26-52 63-2 18-16 31-33 31-18-1-31-15-31-34 0-63 54-121 116-125 77-5 138 51 138 129 1 94 0 189 0 283 0 4-1 7-2 16-20-24-40-22-62 1 0-12 0-17 0-23z" horiz-adv-x="1000" />

<glyph glyph-name="b_153_moon_crescent" unicode="&#xe926;" d="M612 752c-103-106-163-251-161-405 2-154 67-297 174-399-216 3-393 179-396 396-2 107 38 209 113 286 72 74 168 117 270 122m19 98c-2 0-5 0-8 0-276-4-496-232-492-508 4-273 227-492 500-492 3 0 5 0 8 0 83 1 161 23 230 60 0 0 0 0 0 0 0 1 0 1 0 1-184 61-317 234-320 438-3 204 124 380 306 447 0 0 0 1 0 1 0 0 0 0 0 0-67 34-143 53-224 53l0 0z" horiz-adv-x="1000" />

<glyph glyph-name="b_154_moon_crescent_filled" unicode="&#xe927;" d="M869-90c-69-37-147-59-230-60-276-4-504 216-508 492-4 276 216 504 492 508 84 1 162-18 232-53 0 0 0 0 0 0 0 0 0-1 0-1-182-67-310-243-306-447 3-204 136-377 320-438 0 0 0 0 0-1 0 0 0 0 0 0z" horiz-adv-x="1000" />

<glyph glyph-name="b_155_moon_full" unicode="&#xe928;" d="M500 855c-276 0-500-224-500-500s224-500 500-500 500 224 500 500-224 500-500 500z m323-292c5 11 11 21 20 29 32-46 55-99 66-156-38-1-74 21-88 58-9 23-8 47 2 69z m-509 165c16-17 24-39 24-62 0-50-40-91-91-91-29 0-57 14-74 38 38 48 86 87 141 115z m186-789c-230 0-417 187-417 416 0 67 16 129 44 185 32-31 75-49 120-49 96 0 175 79 175 175 0 33-10 65-27 92 33 9 69 14 105 14 112 0 214-44 289-117-18-16-32-35-42-58-19-42-20-90-4-133 27-69 93-112 163-112 4 0 7 1 11 1-2-229-188-414-417-414z m-222 261c-61 0-110 49-110 110s49 109 110 109 110-49 110-109-50-110-110-110z m0 151c-23 0-42-18-42-41s19-42 42-42 41 19 41 42-18 41-41 41z m299-314c-52 0-95 42-95 95s43 94 95 94 95-42 95-94-43-95-95-95z m0 129c-19 0-34-16-34-34s15-35 34-35 34 16 34 35-15 34-34 34z" horiz-adv-x="1000" />

<glyph glyph-name="b_156_moon_full_flled" unicode="&#xe929;" d="M510 855c-276 0-500-224-500-500s224-500 500-500 500 224 500 500-224 500-500 500z m-373-315c11 30 33 56 46 73 38 48 89 82 141 115 23 15 81 30 81 30 17-27 27-59 27-92 0-96-79-175-175-175-45 0-88 18-120 49z m211-318c-48 0-87 40-87 88 0 48 39 87 87 87s87-39 87-87c0-48-39-88-87-88z m284-212c-41 0-75 34-75 76s34 76 75 76 76-34 76-76-34-76-76-76z m284 342c-70 0-136 43-163 112-17 43-15 91 3 133 10 23 25 42 43 58 0 0 31-27 54-63 32-46 55-99 66-156 9-39 8-83 8-83-4 0-8-1-11-1z" horiz-adv-x="1000" />

<glyph glyph-name="b_157_duration" unicode="&#xe930;" d="M463 396v244c0 20 17 37 37 37 21 0 37-17 37-37v-244c5-5 10-11 12-18l177-77c18-8 27-30 19-49-8-18-30-27-49-19l-178 78c-5-2-12-3-18-3-29 0-53 23-53 51 0 15 6 28 16 37z m363 319l0 0c-83 83-199 135-326 135-127 0-243-52-326-135l0 0c-84-84-135-199-135-326 0-128 51-243 135-327 25-26 54-48 86-67l37 64c-26 16-50 34-71 56-70 70-113 166-113 274 0 107 43 203 113 273h0c70 70 167 114 274 114 107 0 204-44 274-114h0c70-70 113-166 113-273 0-107-43-204-113-274-70-70-167-114-274-114-1 0-1 0-2 0l0 71c0 5-1 9-4 11-3 2-7 2-10-1l-128-105c-3-2-5-6-5-10 0-4 2-8 5-10l128-105c3-3 6-3 9-1 3 3 5 6 5 11l0 50 0 15c1 0 1 0 2 0 127 0 243 52 326 135l0 0c84 84 136 199 136 327 0 127-52 242-136 326z" horiz-adv-x="1000" />

<glyph glyph-name="b_158_duration_filled" unicode="&#xe931;" d="M826 715l0 0c-83 83-199 135-326 135-127 0-243-52-326-135l0 0c-84-84-135-199-135-326 0-128 51-243 135-327 25-26 54-48 86-67l37 64c-26 16-50 34-71 56-70 70-113 166-113 274 0 107 43 203 113 273h0c70 70 167 114 274 114 107 0 204-44 274-114h0c70-70 113-166 113-273 0-107-43-204-113-274-70-70-167-114-274-114-1 0-1 0-2 0l0 71c0 5-1 9-4 11-3 2-7 2-10-1l-128-105c-3-2-5-6-5-10 0-4 2-8 5-10l128-105c3-3 6-3 9-1 3 3 5 6 5 11l0 50 0 15c1 0 1 0 2 0 127 0 243 52 326 135l0 0c84 84 136 199 136 327 0 127-52 242-136 326z m-70-582c68 68 105 159 105 256 0 96-37 186-104 254 0 0-1 1-1 1-69 68-159 106-256 106-97 0-187-38-256-106 0 0-1-1-1-1-67-68-104-158-104-254 0-97 37-188 105-256 20-20 42-37 65-52 35-21 85-39 85-39l74 60c0 1 1 1 1 1 6 5 13 7 20 7 7 0 14-2 19-6 10-7 16-19 16-32l0-44c88 6 169 42 232 105z m-239 197c-5-2-11-3-16-3-27 0-48 21-48 47 0 13 5 24 14 33v220c0 18 15 33 34 33 18 0 33-15 33-33v-220c5-5 9-10 11-16l159-70c17-7 24-27 17-44-7-16-27-24-44-17l-160 70z" horiz-adv-x="1000" />

<glyph glyph-name="b_159_clock_quarter" unicode="&#xe932;" d="M500 850c138 0 263-56 354-146 90-91 146-216 146-354s-56-263-146-354c-91-90-216-146-354-146-138 0-263 56-353 146-91 91-147 216-147 354s56 263 147 354c90 90 215 146 353 146l0 0z m0-500l-2 414c-114 0-217-46-291-121-75-75-121-179-121-293 0-114 46-218 121-293 75-75 179-121 293-121 114 0 218 46 293 121 75 75 121 179 121 293l0 2-414-2 0 0z" horiz-adv-x="1000" />

<glyph glyph-name="b_160_clock_quarter_filled" unicode="&#xe933;" d="M854 704c-91 90-216 146-354 146-138 0-263-56-353-146-91-91-147-216-147-354 0-138 56-263 147-354 90-90 215-146 353-146 138 0 263 56 354 146 90 91 146 216 146 354 0 138-56 263-146 354z m-354-354l-2 414c43 1 88-6 131-20 109-36 193-112 241-207 28-57 44-120 44-185l-414-2z" horiz-adv-x="1000" />

<glyph glyph-name="b_161_watering_can" unicode="&#xe934;" d="M213 687l182-153 7-5c-5-7-11-13-18-20-8-8-16-17-25-27l-10-12 2-16 2-26 4-35c0 0-83-39-102-51-5-3-15-10-24-15l0 0-1-1-188 158 67 79 12 14 0 0 30 36 62 74m64 151c-58 0-115-24-156-72-43-52-56-118-41-179l-74-87c-9-12-8-29 4-39l203-170c4-3 9-5 14-5 8 0 16 4 24 9 8 4 17 11 25 15 25 17 227 71 279 73 13 0 26 1 39 1 39 0 73-2 73-2l24 26c0 0-93 27-144 27-2 0-4 0-5 0-51-2-151-3-151-3l-3 26c15 17 30 31 44 47 72 86 61 214-25 286-38 32-84 47-130 47l0 0z m-155-201c-1 37 12 74 37 104 31 37 76 56 121 56 36 0 73-12 102-37 59-49 73-132 38-197l-191 160c-5 4-11 6-17 6-8 0-16-3-21-9l-69-83 0 0z" horiz-adv-x="1000" />

<glyph glyph-name="b_162_watering_can_filled" unicode="&#xe935;" d="M277 838c-58 0-115-24-156-72-43-52-56-118-41-179l-74-87c-9-12-8-29 4-39l203-170c4-3 9-5 14-5 8 0 16 4 24 9 8 4 17 11 25 15 25 17 227 71 279 73 13 0 26 1 39 1 39 0 73-2 73-2l24 26c0 0-93 27-144 27-2 0-4 0-5 0-51-2-151-3-151-3l-3 26c15 17 30 31 44 47 72 86 61 214-25 286-38 32-84 47-130 47l0 0z m-155-201c-1 37 12 74 37 104 31 37 76 56 121 56 36 0 73-12 102-37 59-49 73-132 38-197l-191 160c-5 4-11 6-17 6-8 0-16-3-21-9l-69-83 0 0z" horiz-adv-x="1000" />

<glyph glyph-name="b_163_watering_can_water" unicode="&#xe936;" d="M213 687l182-153 7-5c-5-7-11-13-18-20-8-8-16-17-25-27l-10-12 2-16 2-26 4-35c0 0-83-39-102-51-5-3-15-10-24-15l0 0-1-1-188 158 67 79 12 14 0 0 30 36 62 74m64 151c-58 0-115-24-156-72-43-52-56-118-41-179l-74-87c-9-12-8-29 4-39l203-170c4-3 9-5 14-5 8 0 16 4 24 9 8 4 17 11 25 15 25 17 227 71 279 73 13 0 26 1 39 1 39 0 73-2 73-2l24 26c0 0-93 27-144 27-2 0-4 0-5 0-51-2-151-3-151-3l-3 26c15 17 30 31 44 47 72 86 61 214-25 286-38 32-84 47-130 47l0 0z m-155-201c-1 37 12 74 37 104 31 37 76 56 121 56 36 0 73-12 102-37 59-49 73-132 38-197l-191 160c-5 4-11 6-17 6-8 0-16-3-21-9l-69-83 0 0z m591-251l-32-18c1-1 47-111 47-506h31c0 237-16 374-30 446 42-71 106-218 106-446h32c0 217-56 362-99 442 81-73 208-225 193-442l38 0c23 332-283 522-286 524z" horiz-adv-x="1000" />

<glyph glyph-name="b_164_watering_can_water_filled" unicode="&#xe937;" d="M277 838c-58 0-115-24-156-72-43-52-56-118-41-179l-74-87c-9-12-8-29 4-39l203-170c4-3 9-5 14-5 8 0 16 4 24 9 8 4 17 11 25 15 25 17 227 71 279 73 13 0 26 1 39 1 39 0 73-2 73-2l24 26c0 0-93 27-144 27-2 0-4 0-5 0-51-2-151-3-151-3l-3 26c15 17 30 31 44 47 72 86 61 214-25 286-38 32-84 47-130 47l0 0z m-155-201c-1 37 12 74 37 104 31 37 76 56 121 56 36 0 73-12 102-37 59-49 73-132 38-197l-191 160c-5 4-11 6-17 6-8 0-16-3-21-9l-69-83 0 0z m877-775l-38 0c15 217-112 369-193 442 43-80 99-225 99-442h-32c0 228-64 375-106 446 14-72 30-209 30-446h-31c0 395-46 505-47 506l32 18c3-2 309-192 286-524z" horiz-adv-x="1000" />

<glyph glyph-name="b_165_eco" unicode="&#xe938;" d="M887 25l0 0m-412 787c-179 0-324-145-324-324 0-155 101-322 323-322 124 0 200 58 242 108 51 59 82 140 82 216 0 181-142 322-323 322m0 38c203 0 360-160 360-360 0-160-121-362-361-362-239 0-361 180-361 360 0 200 162 362 362 362l0 0z m210-394c-31-139-143-151-175-152-8-21-19-34-24-40 16-44 26-76 26-76s-16-10-24-2c-2 6-24 71-25 71-33 0-144 9-207 132-67 131-20 238-18 243l5 10 10-1c5 0 96-10 171-71 13 23 41 64 96 97 76 47 139 58 141 59l21 3-3-20c0-1-6-43 1-96 1-13 3-25 5-36 6-36 12-66 0-121z m-209-7c-48 123-175 154-214 160-22-68-11-144 21-206 49-96 131-113 169-115-60 156-99 207-99 207s1 4 1 3c49-47 91-132 119-201 14 23 34 73 3 152z m180 122c-2 12-5 24-6 38-4 34-4 63-3 82-23-7-65-21-111-50-55-33-81-76-89-92 21-21 40-48 54-81 9 23 28 61 86 125 1 0 1-2 1-2-44-75-65-135-73-163 10-38 9-68 5-93 33 2 112 20 135 128 11 49 7 74 1 108z m-277-640c0 5 0 9 0 13 0 24-7 45-22 62-16 17-36 26-60 26-25 0-46-9-62-27-14-17-22-39-22-64 0-27 8-49 22-66 15-17 36-25 63-25 19 0 36 5 51 15 14 11 23 25 27 44h-36c-7-20-21-29-42-29-16 0-27 5-35 15-8 10-12 22-12 36h128l0 0z m-128 25c1 14 5 25 14 33 8 9 19 13 32 13 12 0 23-4 30-13 8-9 13-20 13-33h-89l0 0z m312 14c-2 20-11 36-26 47-14 10-31 15-52 15-28 0-49-9-64-26-15-17-22-40-22-67 0-26 8-47 22-63 15-17 36-26 62-26 46 0 72 23 80 69h-38c-2-12-7-21-14-28-7-7-17-11-28-11-15 0-27 6-35 19-7 10-10 24-10 40 0 24 5 41 16 52 8 7 18 11 31 11 23 0 36-11 40-32h38l0 0z m110-90c-16 0-29 7-37 19-8 12-12 25-12 42 0 17 4 30 12 42 8 12 21 19 37 19 16 0 28-7 37-19 8-12 12-25 12-42 0-17-4-30-12-42-9-12-21-19-37-19l0 0z m0-30c27 0 49 9 65 26 15 16 22 38 22 65 0 27-7 49-22 65-16 18-38 26-65 26-27 0-49-8-64-25-16-17-23-39-23-66 0-27 7-49 22-65 16-17 38-26 65-26l0 0z" horiz-adv-x="1000" />

<glyph glyph-name="b_166_eco_filled" unicode="&#xe939;" d="M887 25l0 0m-508-94c0 5 0 9 0 13 0 24-7 45-22 62-16 17-36 26-60 26-25 0-46-9-62-27-14-17-22-39-22-64 0-27 8-49 22-66 15-17 36-25 63-25 19 0 36 5 51 15 14 11 23 25 27 44h-36c-7-20-21-29-42-29-16 0-27 5-35 15-8 10-12 22-12 36h128l0 0z m-128 25c1 14 5 25 14 33 8 9 19 13 32 13 12 0 23-4 30-13 8-9 13-20 13-33h-89l0 0z m312 14c-2 20-11 36-26 47-14 10-31 15-52 15-28 0-49-9-64-26-15-17-22-40-22-67 0-26 8-47 22-63 15-17 36-26 62-26 46 0 72 23 80 69h-38c-2-12-7-21-14-28-7-7-17-11-28-11-15 0-27 6-35 19-7 10-10 24-10 40 0 24 5 41 16 52 8 7 18 11 31 11 23 0 36-11 40-32h38l0 0z m110-90c-16 0-29 7-37 19-8 12-12 25-12 42 0 17 4 30 12 42 8 12 21 19 37 19 16 0 28-7 37-19 8-12 12-25 12-42 0-17-4-30-12-42-9-12-21-19-37-19l0 0z m0-30c27 0 49 9 65 26 15 16 22 38 22 65 0 27-7 49-22 65-16 18-38 26-65 26-27 0-49-8-64-25-16-17-23-39-23-66 0-27 7-49 22-65 16-17 38-26 65-26l0 0z m-23 759c-4 34-4 63-3 82-23-7-65-21-111-50-55-33-81-76-89-92 21-21 40-48 54-81 9 23 28 61 86 125 1 0 1-2 1-2-44-75-65-135-73-163 10-38 9-68 5-93 33 2 112 20 135 128 11 49 7 74 1 108-2 12-5 24-6 38z m185-119c0-160-121-362-361-362-239 0-361 180-361 360 0 200 162 362 362 362 203 0 360-160 360-360z m-150 87c-2 11-4 23-5 36-7 53-1 95-1 96l3 20-21-3c-2-1-65-12-141-59-55-33-83-74-96-97-75 61-166 71-171 71l-10 1-5-10c-2-5-49-112 18-243 63-123 174-132 207-132 1 0 23-65 25-71 8-8 24 2 24 2s-10 32-26 76c5 6 16 19 24 40 32 1 144 13 175 152 12 55 6 85 0 121z m-423 32c-22-68-11-144 21-206 49-96 131-113 169-115-60 156-99 207-99 207s1 4 1 3c49-47 91-132 119-201 14 23 34 73 3 152-48 123-175 154-214 160z" horiz-adv-x="1000" />

<glyph glyph-name="b_167_leaves" unicode="&#xe940;" d="M920 570c-4 21-8 43-11 68-12 96-2 173-1 174l5 38-37-7c-5 0-120-21-259-107-100-61-153-136-176-177-138 111-303 128-312 129l-20 2-7-18c-4-9-91-204 32-445 115-225 319-242 379-242 1 0 42-118 45-129 14-16 44 3 44 3s-17 59-47 140c9 10 29 35 45 73 57 1 263 24 318 278 23 101 13 156 2 220z m-388-511c-52 127-128 282-219 368 0 1-1-6-1-6s71-94 180-380c-68 5-219 36-309 212-58 113-78 253-39 376 71-11 305-68 393-292 57-146 20-237-5-278z m332 303c-43-197-186-229-248-234 8 45 9 102-9 170 16 52 54 162 134 298 0 1 0 4-1 5-107-118-140-188-158-230-26 61-60 110-99 149 15 30 62 107 163 168 85 53 161 79 204 92-2-34-3-88 4-150 4-25 8-48 11-69 12-63 19-109-1-199z" horiz-adv-x="1000" />

<glyph glyph-name="b_168_smart_home_circle" unicode="&#xe941;" d="M519 192c-11-12-30-12-41 0-11 12-11 30 0 42 12 11 30 11 41-1 12-11 12-30 0-41z m61 101c-24 17-52 26-82 26l0 0c-29 1-58-8-82-25l16-28c19 14 42 22 66 22 24-1 47-9 66-23l16 28z m41 63c-38 22-80 34-122 34-42 1-85-10-123-32l16-28c66 39 148 38 213-2l16 28z m-121 105c-58 1-114-13-163-40l15-27c45 24 95 36 147 35h0c52 0 102-13 147-38l15 27c-49 28-104 43-161 43l0 0z m-1 166l219-103v-391h-435l0 391 40 19 1 0 0 0 175 84z m284-90l-91 42v0l-193 91-192-91-90-42 16-36 11 5-1-412h514v411l10-4 16 36z m-283 265c-250 0-452-202-452-452 0-250 202-452 452-452 250 0 452 202 452 452 0 250-202 452-452 452m0 48c276 0 500-224 500-500 0-276-224-500-500-500-276 0-500 224-500 500 0 276 224 500 500 500l0 0z" horiz-adv-x="1000" />

<glyph glyph-name="b_169_smart_home_circle_filled" unicode="&#xe942;" d="M305 564l0 0-45-22-1-432h482v432l-243 114-193-92z m216-389c-13-13-33-13-45 0-13 13-13 34 0 47 13 12 33 12 46-1 12-13 12-34-1-46z m50 81c-21 16-47 25-73 25-27 0-52-8-73-23l-18 30c27 19 58 28 91 28l0 0c33 0 64-11 90-30l-17-30z m45 70c-72 44-163 45-236 2l-17 31c42 24 89 36 136 35 47 0 93-13 135-38l-18-30z m-116 147c63-1 124-17 179-48l-18-30c-49 28-104 42-162 43h0c-57 0-113-13-162-40l-17 31c54 29 116 45 180 44l0 0z m0 377c-276 0-500-224-500-500 0-276 224-500 500-500 276 0 500 224 500 500 0 276-224 500-500 500z m295-333l-11 5v-455h-568l0 455-11-5-18 40 100 46 211 101 215-101v0l100-46-18-40z" horiz-adv-x="1000" />

<glyph glyph-name="b_170_bluetooth" unicode="&#xe943;" d="M764 549l-302 301v-397l-165 166-60-61 207-208-207-208 60-61 165 166v-397l302 301-199 199 199 199z m-121-1l-96-96 0 192 96-96z m0-396l-96-96 0 192 96-96z" horiz-adv-x="1000" />

<glyph glyph-name="b_171_bluetooth_filled" unicode="&#xe944;" d="M540 603l83-83-82-82-1 165 0 0z m0-506l83 83-82 82-1-165 0 0z m-88 253l-179 179 52 52 143-142v341l259-259-171-171 171-171-259-259v341l-143-142-52 52 179 179 0 0z m48-500c218 0 369 104 369 500 0 396-151 500-369 500s-369-104-369-500c0-396 151-500 369-500l0 0z" horiz-adv-x="1000" />

<glyph glyph-name="b_172_bluetooth_text" unicode="&#xe945;" d="M251 341h10c17 0 24-8 24-26 0-17-6-26-21-26h-13v52l0 0z m0 70h11c13 0 19-8 19-24 0-14-8-22-19-22h-11v46l0 0z m-29-146h46c33 0 46 21 46 49 0 22-9 34-24 40 14 6 21 21 21 36 0 29-14 45-46 45h-43v-170l0 0z m130 0v170h-27v-170h27l0 0z m70 127v-99c-6-5-11-8-17-8-6 0-9 2-9 9v98h-27v-103c0-16 9-26 22-26 16 0 21 6 32 15v-13h25v127h-26l0 0z m69-47v7c0 14 5 20 14 20 10 0 15-6 15-20v-7h-29l0 0z m55 2c0 28-11 47-41 47-30 0-41-19-41-47v-37c0-28 11-47 41-47 30 0 41 18 41 45h-26v-3c0-14-5-20-15-20-9 0-14 6-14 20v18h55v24l0 0z m454 70c0-10-8-19-19-19-10 0-18 8-18 19 0 10 8 18 18 18 11 0 19-8 19-18z m-33 0c0-8 7-15 14-15 8 0 15 6 15 14 0 8-7 15-15 15-7 0-14-6-14-14z m18-10l-6 8h0v-8h-4v20h7c4 0 6-2 6-5 0-4-2-6-5-6 1-1 1-2 2-3l4-6h-4z m-4 17h-2v-6h1c4 0 5 2 5 3 0 2-1 3-4 3z m-412-54v-79c0-19 11-28 31-28 6 0 10 0 13 1v23h-9c-6 0-9 4-9 10v73h18v22h-18v34h-26v-34h-14v-22h14l0 0z m110-65c0-14-5-20-14-20-10 0-15 6-15 20v47c0 14 5 20 15 20 9 0 14-6 14-20v-47l0 0z m-55 5c0-28 11-47 41-47s41 19 41 47v37c0 28-11 47-41 47s-41-19-41-47v-37l0 0z m151-5c0-14-5-20-15-20s-14 6-14 20v47c0 14 5 20 14 20s15-6 15-20v-47l0 0z m-56 5c0-28 11-47 41-47 30 0 41 19 41 47v37c0 28-11 47-41 47-30 0-41-19-41-47v-37l0 0z m105 60v-79c0-19 11-28 30-28 7 0 10 0 13 1v23h-8c-6 0-9 4-9 10v73h17v22h-17v34h-26v-34h-15v-22h15l0 0z m86-105v99c6 5 11 8 17 8 6 0 9-3 9-9v-98h27v102c0 17-9 27-22 27-16 0-21-6-31-14v55h-26v-170h26l0 0z m-810 147l21-20-20-20-1 40 0 0z m0-124l21 20-20 21-1-41 0 0z m-21 62l-44 44 13 13 35-35v84l63-64-42-42 42-42-63-63v83l-35-35-13 13 44 44 0 0z m12-123c53 0 90 26 90 123 0 97-37 123-90 123-54 0-91-26-91-123 0-97 37-123 91-123l0 0z" horiz-adv-x="1000" />

<glyph glyph-name="b_173_starting_point" unicode="&#xe946;" d="M295 275l554 122c6 1 8 8 5 12l-150 185 126 222c3 5 0 11-6 11l-587 23v-48-540-356h-172v-56h401v56h-171v369z m14 500l406-16-74-130c-14-26-12-58 7-81l84-103-423-93v423z m340-615l95-156-94-154h-98l93 154-95 156h99z m191 0l95-156-93-154h-99l94 154-95 156h98z" horiz-adv-x="1000" />

<glyph glyph-name="b_174_starting_point_filled" unicode="&#xe947;" d="M295 275l554 122c6 1 8 8 5 12l-150 185 126 222c3 5 0 11-6 11l-587 23v-48-540-356h-172v-56h401v56h-171v369z m354-115l95-156-94-154h-98l93 154-95 156h99z m191 0l95-156-93-154h-99l94 154-95 156h98z" horiz-adv-x="1000" />

<glyph glyph-name="b_175_footprint" unicode="&#xe948;" d="M817 786c6 0 12-1 18-1 35-2 60-14 74-36 22-32 23-87 2-147-31-92-107-229-400-346-4-1-7-3-9-3-4 2-11 6-23 16-54 40-88 68-138 110-1 1-2 1-2 2 1 3 2 7 4 13 99 269 315 392 474 392m0 64c-175 0-421-128-534-434-18-46-11-63 16-86 53-44 87-72 141-113 29-21 44-30 60-30 11 0 21 4 35 9 290 116 393 257 437 385 44 130 10 259-133 268-7 1-15 1-22 1l0 0z m-618-640c2-1 3-2 5-4 9-7 18-13 27-20 46-35 83-62 121-96l3-2c-38-82-106-149-140-164-19-8-38-10-50-10-14 0-26 3-33 5-24 8-38 27-45 42-15 31-17 72-5 106 21 59 86 125 114 141 1 1 2 1 3 2m2 69c-11 0-21-6-37-15-39-22-116-100-143-176-31-88 2-200 91-230 13-5 32-8 53-8 23 0 50 4 76 15 56 25 137 113 177 207 15 35-1 46-23 66-48 42-94 76-152 120-20 15-31 21-42 21l0 0z" horiz-adv-x="1000" />

<glyph glyph-name="b_176_footprint_filled" unicode="&#xe949;" d="M839 849c143-9 177-138 133-268-44-128-147-269-437-385-36-14-48-14-95 21-54 41-88 69-141 113-27 23-34 40-16 86 117 319 381 445 556 433z m-444-711c-48 42-94 76-152 120-38 28-46 25-79 6-39-22-116-100-143-176-31-88 2-200 91-230 27-9 79-15 129 7 56 25 137 113 177 207 15 35-1 46-23 66l0 0z" horiz-adv-x="1000" />

<glyph glyph-name="b_177_full_screen_filled" unicode="&#xe950;" d="M0 850v-1000h1000v1000h-1000z m318-968h-286v286h85v-201h201v-85z m0 851h-201v-201h-85v286h286v-85z m650-851h-286v85h201v201h85v-286z m0 650h-85v201h-201v85h286v-286z" horiz-adv-x="1000" />

<glyph glyph-name="b_178_ventilation" unicode="&#xe951;" d="M808 642c17 0 30-5 41-14l0 0 0 0c23-19 41-63 47-91-1 0-1 0-2 0-9 0-19 1-30 1-29 1-62 2-95 2-37 0-66-1-91-4l-1 0 0-1c-15-2-29-5-44-9 42 61 106 99 133 108 15 5 30 8 42 8m0 53c-20 0-40-4-59-10-44-15-128-69-175-152-33-58-45-106-45-122 36 32 92 63 155 72 26 3 55 4 85 4 44 0 90-2 124-3 1 0 3 0 4 0 49 0 56 32 52 58-5 28-26 94-66 127-22 19-48 26-75 26l0 0z m-88-379c74-9 137-48 157-68 20-18 41-46 35-77-7-31-42-69-60-83 0 0 0 1-1 1-4 10-9 20-14 31-25 51-55 114-88 160-9 12-19 24-29 36m-41 55c-56 0-96-10-108-17 44-18 98-53 135-105 37-51 73-132 98-183 13-26 29-36 44-36 12 0 24 6 34 14 22 17 71 65 82 116 10 51-17 95-50 127-33 31-120 81-216 83-6 1-13 1-19 1l0 0z m-92-223c32-69 33-144 27-170-5-26-18-60-47-70-9-3-21-5-35-5-27 0-55 7-68 11 0 1 1 1 1 2 5 8 11 17 17 26 31 49 69 109 91 162 6 14 10 29 14 44m-47 146c10-47 8-111-16-170-25-59-74-132-104-180-27-45-4-69 23-78 17-7 53-16 89-16 18 0 37 2 53 8 48 17 71 64 81 109 10 45 4 144-43 227-33 58-69 93-83 100l0 0z m-165-124c-41-62-104-102-130-112-17-6-32-8-46-8-16 0-28 3-38 12l-1 0 0 1c-24 18-42 63-48 89 1 0 1 0 2 0 11 0 23 0 36 0 16 0 31 0 48 0 39 0 89 1 131 7l1 0 0 0c15 3 30 6 45 11m100 117c-35-32-91-65-154-75-36-6-81-7-123-7-31 0-60 0-84 0-53 0-61-33-55-60 6-28 27-93 69-125 21-17 46-24 71-24 22 0 44 5 64 12 43 16 125 73 170 156 31 59 43 108 42 123l0 0z m-330 314c1 0 1-1 1-2 6-10 12-22 19-35 25-49 56-109 89-152 9-13 19-24 30-35-69 6-134 40-159 63l0 0 0 0c-20 18-42 45-37 76 6 29 36 67 57 85m4 57c-13 0-25-6-35-14-21-17-69-68-78-118-9-51 19-95 53-125 34-31 122-78 217-79 3 0 5 0 7 0 63 0 109 13 121 20-45 16-100 51-138 102-38 50-76 130-103 180-13 26-29 34-44 34l0 0z m336 139l0 0c30 0 62-9 78-16 0 0-1 0-1-1-7-11-16-23-26-36-33-46-70-97-92-146-7-13-13-28-18-43-25 66-25 139-16 172 6 21 20 58 51 67 7 2 15 3 24 3m0 53c-13 0-27-1-39-5-49-15-75-60-87-104-12-44-13-144 29-229 29-60 63-97 76-105-7 47 0 112 27 169 27 57 82 126 115 174 29 43 7 67-19 79-19 8-61 21-102 21l0 0z" horiz-adv-x="1000" />

<glyph glyph-name="b_179_ventilation_filled" unicode="&#xe952;" d="M529 411c0 16 12 64 45 122 47 83 131 137 175 152 44 14 95 17 134-16 40-33 61-99 66-127 4-27-4-60-56-58-58 2-146 7-209-1-63-9-119-40-155-72l0 0z m42-57c44-18 98-53 135-105 37-51 73-132 98-183 23-47 56-39 78-22 22 17 71 65 82 116 10 51-17 95-50 127-33 31-120 81-216 83-65 3-114-8-127-16l0 0z m-31-60c10-47 8-111-16-170-25-59-74-132-104-180-27-45-4-69 23-78 26-11 93-25 142-8 48 17 71 64 81 109 10 45 4 144-43 227-33 58-69 93-83 100l0 0z m-65-7c-35-32-91-65-154-75-63-10-150-7-207-7-53 0-61-33-55-60 6-28 27-93 69-125 40-32 91-27 135-12 43 16 125 73 170 156 31 59 43 108 42 123l0 0z m-41 55c-45 16-100 51-138 102-38 50-76 130-103 180-24 47-57 38-79 20-21-17-69-68-78-118-9-51 19-95 53-125 34-31 122-78 217-79 67-1 116 13 128 20l0 0z m30 65c-7 47 0 112 27 169 27 57 82 126 115 174 29 43 7 67-19 79-25 11-91 30-141 16-49-15-75-60-87-104-12-44-13-144 29-229 29-60 63-97 76-105l0 0z" horiz-adv-x="1000" />

<glyph glyph-name="b_180_ventialtion_simple" unicode="&#xe953;" d="M8 185c15 53 78 75 122 42 81-60 190-65 276-12 22 13 50 2 57-22 47-151-64-304-222-307-158-2-274 147-233 299z m958 56c-81 135-269 155-376 39-18-18-13-48 10-60 88-48 138-145 126-246-6-54 45-98 98-84 152 40 223 216 142 351z m-669 451c-77-138 0-311 154-346 24-6 48 13 47 39-2 101 57 193 149 232 51 22 63 88 25 127-111 112-299 86-375-52z" horiz-adv-x="1000" />

<glyph glyph-name="b_181_rotation_simple" unicode="&#xe954;" d="M331 715c51 29 105 43 158 45 0 11 0 21 0 33 0 2 1 4 3 5 2 2 4 2 6 0l100-59c2-1 3-2 3-3 0-2-1-3-3-4-34-21-67-43-102-64-1-1-3-2-5 0-2 1-2 4-2 5v35c-43-3-86-16-126-39-145-83-196-268-113-413 18-33 42-60 69-83 1-1 0-3-1-3-4-7-9-14-14-21-1-2-3-2-5-1-37 27-69 62-94 105-92 162-36 369 126 462z m-57-690c-50 28-90 67-118 113-10-6-20-11-30-17-1-1-4-2-6 0-2 1-3 3-3 4v118c0 1 1 3 2 3 2 1 4 1 5 0 36-19 71-37 107-55 1-1 3-3 3-5-1-2-2-4-5-5l-29-17c25-36 57-66 97-89 145-84 330-34 414 111 18 32 30 67 36 101 1 2 3 2 4 2 8-1 17-2 25-3 2 0 3-1 3-3-5-46-18-92-43-134-93-162-300-218-462-124z m617 110l-101-59c-1-1-3-1-4-1-2 1-2 3-2 4-2 41-4 80-6 121 0 1 0 3 3 4 2 1 4 1 6 0l29-17c19 39 29 83 29 129-1 167-138 301-305 301-37 0-72-7-105-20-2 0-3 2-4 3-4 7-6 15-11 23 0 2 0 3 2 4 43 19 89 30 138 30 187 1 339-150 340-337 0-57-14-112-39-159 10-6 19-11 29-17 3 0 4-3 4-4 0-3-1-5-3-5z" horiz-adv-x="1000" />

<glyph glyph-name="b_182_rotation_simple_filled" unicode="&#xe955;" d="M500 850c-276 0-500-224-500-500s224-500 500-500 500 224 500 500-224 500-500 500z m-169-135c51 29 105 43 158 45 0 11 0 21 0 33 0 2 1 4 3 5 2 2 4 2 6 0l100-59c2-1 3-2 3-3 0-2-1-3-3-4-34-21-67-43-102-64-1-1-3-2-5 0-2 1-2 4-2 5v35c-43-3-86-16-126-39-145-83-196-268-113-413 18-33 42-60 69-83 1-1 0-3-1-3-4-7-9-14-14-21-1-2-3-2-5-1-37 27-69 62-94 105-92 162-36 369 126 462z m-57-690c-50 28-90 67-118 113-10-6-20-11-30-17-1-1-4-2-6 0-2 1-3 3-3 4v118c0 1 1 3 2 3 2 1 4 1 5 0 36-19 71-37 107-55 1-1 3-3 3-5-1-2-2-4-5-5l-29-17c25-36 57-66 97-89 145-84 330-34 414 111 18 32 30 67 36 101 1 2 3 2 4 2 8-1 17-2 25-3 2 0 3-1 3-3-5-46-18-92-43-134-93-162-300-218-462-124z m617 110l-101-59c-1-1-3-1-4-1-2 1-2 3-2 4-2 41-4 80-6 121 0 1 0 3 3 4 2 1 4 1 6 0l29-17c19 39 29 83 29 129-1 167-138 301-305 301-37 0-72-7-105-20-2 0-3 2-4 3-4 7-6 15-11 23 0 2 0 3 2 4 43 19 89 30 138 30 187 1 339-150 340-337 0-57-14-112-39-159 10-6 19-11 29-17 3 0 4-3 4-4 0-3-1-5-3-5z" horiz-adv-x="1000" />

<glyph glyph-name="b_183_rotation_boost" unicode="&#xe956;" d="M435 731c65 21 132 19 192 0l5 19c1 1 2 3 4 4 1 0 2 0 4-1 26-25 51-47 79-70 1-2 2-3 1-5-1-3-3-4-3-4-35-7-70-13-104-19-1-1-3-1-4 0-2 2-2 4-1 5 2 8 3 12 5 19-55 16-114 16-173-2-143-45-226-186-207-330 0-1 0-1 0-1-1 0-1 0-1 1-30 96-12 194 42 269 39 53 93 94 161 115z m-267-118l-16 11c-2 0-3 2-3 4 0 1 1 2 2 3 32 19 60 36 91 55 1 0 3 1 5-1 2-1 3-3 2-4-4-35-8-70-12-104 0-2 0-3-2-4-2-1-4 0-5 0-6 5-10 6-16 11-31-48-50-105-50-166 1-149 110-272 253-296 1 0 1 0 1 0 0-1-1-1-1-1-100 0-189 47-245 120-39 53-62 118-62 188 0 68 22 132 58 184z m131-583c-65 21-119 62-156 113l-16-13c-1-1-3-1-5-1-1 0-2 1-2 4-7 35-15 67-23 102 0 2 0 4 2 5 2 2 4 1 5 1 32-15 63-30 95-44 2-1 3-2 3-4 0-1-1-3-3-4-5-5-8-8-14-13 35-44 83-79 141-99 142-47 293 19 361 146 0 1 0 1 1 1 0 0 0-1 0-2-32-94-104-163-192-193-62-20-130-22-197 1z m440 55c-40-55-95-93-156-114l7-18c1-2 1-4 0-5-1-2-2-2-3-2-37 4-70 7-106 9-2 0-3 2-4 4-1 2 0 4 1 5 24 25 48 51 71 77 1 1 3 2 4 1 2 0 3-2 4-3 3-7 4-10 7-17 53 19 102 54 138 104 88 120 71 284-29 388-1 0-1 1-1 1 0 0 1 0 2 0 80-59 124-150 126-242 0-65-20-131-61-188z m122 150c-1-1-2-2-4-2-3 0-4 1-5 2-17 30-34 62-51 92-1 1-1 2 0 4 1 2 3 3 4 3 8 0 12 0 19 1-2 57-20 114-57 163-87 121-247 157-377 93 0-1-1-1-1 0 0 0 0 1 1 1 81 58 180 72 269 45 61-20 118-59 159-116 40-56 60-120 60-183l20 1c2 0 4-1 4-2 2-2 2-3 1-4-15-34-28-64-42-98z" horiz-adv-x="1000" />

<glyph glyph-name="b_184_rotation_boost_filled" unicode="&#xe957;" d="M500 850c-276 0-500-224-500-500s224-500 500-500c276 0 500 224 500 500s-224 500-500 500z m-38-127c65 21 132 19 192-1l6 19c0 2 1 4 3 4 1 1 3 0 4-1 27-24 52-46 79-70 1-1 2-3 1-5 0-2-2-4-3-4-35-6-69-13-104-19-1 0-3 0-4 1-1 1-1 4-1 5 2 7 3 11 5 18-55 16-114 17-173-2-142-45-226-186-206-329 0-1 0-2-1-2 0 0-1 1-1 2-30 95-11 194 42 269 39 53 94 94 161 115z m-266-119l-17 11c-1 1-2 3-2 5 0 1 0 2 2 3 31 18 59 35 90 54 2 1 3 2 5 0 3-1 3-3 3-4-4-35-9-70-12-105 0-2-1-3-3-4-1-1-3 0-5 1-6 4-9 6-16 10-31-47-49-104-49-165 0-150 110-272 252-296 1 0 2 0 2-1 0 0-2-1-2-1-100 0-188 48-244 121-39 53-62 118-62 188 0 68 21 131 58 183z m130-583c-65 22-118 62-156 114l-15-13c-1-1-4-2-5-1-1 0-2 1-2 3-8 36-16 68-24 103 0 2 0 3 2 5 2 2 4 1 5 0 32-14 64-29 95-44 2 0 3-1 3-3 1-2-1-4-2-4-6-5-9-8-15-13 36-44 84-80 142-99 142-47 292 19 360 146 0 1 0 1 1 1 1 0 1-1 1-2-32-94-105-164-192-194-63-19-131-21-198 1z m440 56c-40-56-95-94-155-114l7-19c1-1 0-4 0-5-1-1-3-1-4-1-37 4-70 6-106 9-1 0-3 1-4 3-1 2 1 5 1 5 24 26 48 52 72 78 1 0 2 2 4 1 2 0 3-2 3-3 3-7 5-11 7-18 53 20 102 55 138 105 88 120 72 283-29 387 0 1-1 1 0 1 0 1 1 1 1 0 81-59 124-149 126-242 0-65-20-130-61-187z m122 150c0-1-1-3-4-3-2 0-4 2-4 2-17 31-34 62-51 93-1 1-1 2-1 4 1 1 3 2 5 2 7 0 11 1 19 2-3 56-21 113-57 163-88 121-248 156-377 92-1 0-1 0-2 0 0 0 1 1 1 2 81 58 180 72 269 44 62-19 118-59 159-116 41-55 60-119 61-183l19 1c2 0 4 0 5-2 1-1 1-2 0-4-15-33-27-64-42-97z" horiz-adv-x="1000" />

<glyph glyph-name="b_185_magnifier" unicode="&#xe958;" d="M662 220l-1 1c57 66 92 152 92 246 0 208-169 377-377 377-207 0-376-169-376-377 0-207 169-376 376-376 86 0 164 28 227 76v0l344-311 53 59-338 305z m-286-52c-165 0-299 134-299 299 0 166 134 300 299 300 166 0 300-134 300-300 0-74-27-142-72-194l-1-1c-55-64-136-104-227-104z m43 253v-136h-87v136h-136v92h136v137h87v-137h138v-92h-138z" horiz-adv-x="1000" />

<glyph glyph-name="b_186_magnifier_filled" unicode="&#xe959;" d="M662 220l-1 1c57 66 92 152 92 246 0 208-169 377-377 377-207 0-376-169-376-377 0-207 169-376 376-376 86 0 164 28 227 76v0l344-311 53 59-338 305z m-105 201h-138v-136h-87v136h-136v92h136v137h87v-137h138v-92z" horiz-adv-x="1000" />

<glyph glyph-name="b_187_steam" unicode="&#xe960;" d="M691 782l0 0m0 0l0 0m0 0l0 0m0 0l0 0m0 0l0 0m-355-207l62 6c8 73 69 130 142 130 78 0 143-66 143-147 0-17-3-33-8-48 24 13 52 20 81 20 101 0 184-85 184-189 0-104-83-189-184-189-29 0-57 7-81 20 5-16 8-32 8-49 0-81-65-147-144-147-72 0-132 56-141 128l-62 6c6-110 95-198 203-198 101 0 186 77 202 177 4-1 8-1 13-1 135 0 245 114 246 253 0 138-111 252-246 251-5 0-9-1-13-1-16 100-101 177-202 177-108 0-198-89-203-199l0 0z m-336-135l3-36 473 44-3 36-473-44 0 0z m2-74v-36h581v36h-581l0 0z m1-77l-3-36 473-43 3 37-473 42 0 0z" horiz-adv-x="1000" />

<glyph glyph-name="b_188_steam_filled" unicode="&#xe961;" d="M691 782l0 0m0 0l0 0m0 0l0 0m0 0l0 0m0 0l0 0m63-184c-5 0-9-1-13-1-16 100-101 177-202 177-108 0-198-89-203-199l0-104 137 13 3-36-140-13 0-69h247v-36h-247l0-71 140-12-3-37-137 13 0-107c6-110 95-198 203-198 101 0 186 77 202 177 4-1 8-1 13-1 135 0 245 114 246 253 0 138-111 252-246 251z m-418-127l0 0-336-31 3-36 333 31 0 36z m-334-105v-36h334l0 36h-334z m334-107l0 0-333 30-3-36 336-30 0 36z" horiz-adv-x="1000" />

<glyph glyph-name="b_189_wind_direction" unicode="&#xe962;" d="M974 333c-22-1-45-1-70-2-308-9-590-17-903-68v184c281-47 581-58 886-62 29 0 58 0 87 0l26-26-26-26z m-337 386l-1-79 103-23-102 102z m-1-121v-52c31-4 64-7 97-10 32-3 65-5 95-6l-50 49-142 19z m287-163l-45 45c-173 10-308 22-443 46-134 24-266 66-434 120v-139c218-39 455-60 676-68 43-1 85-2 126-3 41-1 81-1 120-1l0 0z m-287-454l8 8 89 90 12 12-16-4-90-21-4-1v-4l1-69v-11z m-1 123h1l136 22 56 57h-1c-58-3-123-11-182-19l-9-1-1-1v0-57-1z m293 180h-2c-39 0-80-1-121-3-42-1-84-2-127-4-221-12-459-38-677-83h-1v0l1-143v0h0c168 60 301 99 434 127 135 27 269 42 442 55h1l0 0 49 50 1 1z" horiz-adv-x="1000" />

<glyph glyph-name="b_190_wind_direction_filled" unicode="&#xe963;" d="M974 385l-337 334-1-79 0-142-1 0c-69 8-135 16-200 28-134 24-266 66-434 120l-1-452h1l-1 0 1-143v0h0c168 60 301 99 434 127 65 13 131 23 200 32l0-48 0 0v0-57-1h0l0-39v-4l1-69v-11l8 8 89 90 241 254 26 26-26 26z" horiz-adv-x="1000" />

<glyph glyph-name="c_191_smart_mode_filled" unicode="&#xe994;" d="M626-35h-248c-12 0-21 10-21 22 0 12 9 22 21 22h248c12 0 21-10 21-22 0-12-9-22-21-22z m-106-40h-128c0 0-6-38 23-58 30-21 44-21 44-21h50-2 49c0 0 15 0 44 21 29 20 24 58 24 58h-128m-167 663c-18-56-9-119 17-170 41-79 109-93 139-95-49 129-81 171-81 171s1 3 1 2c41-38 75-108 98-165 12 18 28 59 3 125-40 101-145 126-177 132z m320 0c-4 28-3 52-2 67-20-5-54-17-92-41-46-28-67-62-73-76 17-17 33-39 44-67 8 19 23 50 71 104 1-1 1-2 1-2-36-62-54-111-61-135 9-31 8-56 4-76 28 2 93 16 112 105 9 41 6 61 1 90-2 9-4 19-5 31z m174-63c0-57-15-111-42-158 0 0-80-114-118-150-6-5-8-13-9-21l-2-105c-1-18-16-33-34-33h-100-30-100c-18 0-34 15-34 33l-3 105c0 8-3 15-8 21-14 17-45 52-72 85-6 7-12 13-17 20-9 11-18 23-26 36-4 6-8 12-9 15l1-1c-28 50-42 109-39 171 9 165 144 297 309 303 183 7 333-139 333-321z m-145 36c-2 9-3 19-5 30-5 44 0 78 0 79l2 17-17-3c-2 0-53-10-116-48-45-28-69-62-79-80-62 50-137 58-141 58l-9 1-3-8c-2-4-41-92 14-201 52-101 144-109 171-109 0 0 19-53 20-58 7-7 20 2 20 2s-8 26-21 63c4 4 13 15 20 33 26 0 118 10 143 125 11 45 6 70 1 99z" horiz-adv-x="1000" />

<glyph glyph-name="c_192_smart_mode_line" unicode="&#xe995;" d="M612 45h-222c-30 0-54 23-54 53l-3 101c0 3-1 5-3 7-15 17-43 51-69 82-7 7-12 13-17 20-10 11-18 23-26 36-6 9-10 15-11 19-28 53-42 113-38 173 9 170 149 308 319 314 91 3 177-30 242-93 66-63 102-148 102-239 0-50-12-99-33-144l-4-10c-2-6-7-24-123-158-2-2-3-5-3-7l-3-101c0-30-24-53-54-53z m-361 325c1 0 1-1 2-2l0-1c7-12 15-23 23-33 5-5 10-11 16-17l1-1c26-31 55-65 69-82 9-10 13-22 13-34l3-101c0-7 5-12 12-12h222c6 0 12 5 12 12l2 101c1 12 5 24 14 34 50 58 84 100 101 123l11 19c24 43 37 92 37 142 0 80-31 154-88 209-57 55-132 83-212 80-148-5-270-125-278-273-3-54 9-107 35-154l5-10z m390-384c0 12-10 22-21 22h-239c-12 0-22-10-22-22 0-11 10-21 22-21h239c11 0 21 10 21 21z m-124-60h-124c0 0-5-37 23-57 29-19 43-19 43-19h48-3 48c0 0 14 0 43 19 28 20 23 57 23 57h-124m177 627c-2 9-4 18-5 29-5 42-1 76-1 76l3 17-17-3c-2-1-52-10-112-47-44-27-67-60-77-77-60 48-132 56-136 56l-9 1-3-8c-2-4-39-89 14-194 50-98 139-105 165-105 1 0 18-52 20-57 6-6 19 2 19 2s-8 25-21 61c4 4 13 15 20 31 25 1 115 11 139 122 10 44 5 67 1 96z m-170-223c-22 55-55 123-95 160 0 1 0-2 0-2s31-41 78-166c-30 2-95 16-134 92-26 50-34 110-17 164 31-5 133-29 171-127 24-63 9-103-3-121z m145 132c-19-86-81-100-108-102 4 20 4 44-4 74 7 23 24 71 59 130 0 0 0 1-1 2-47-52-61-82-69-100-11 26-26 48-43 65 7 13 27 46 71 73 37 23 70 34 89 40-1-15-1-39 2-65 1-11 3-21 5-31 5-27 8-47-1-86z" horiz-adv-x="1000" />

<glyph glyph-name="c_193_smart_mode_circle_filled" unicode="&#xe996;" d="M602 496c-3 26 0 46 0 47l1 10-10-2c-1 0-32-6-69-29-27-16-41-36-47-47-37 29-82 34-84 34l-5 1-2-5c-2-2-25-55 8-119 31-61 86-65 102-65 0 0 11-32 12-35 4-4 12 1 12 1s-5 16-13 37c3 3 8 10 12 20 15 0 71 7 86 75 6 27 3 41 0 59-1 5-2 11-3 18z m-101-155c-14 34-34 75-59 98 0 1 0-1 0-1s19-25 48-102c-18 1-59 9-83 57-15 30-21 67-10 101 19-4 82-19 105-79 16-39 6-63-1-74z m89 81c-11-53-50-62-66-63 2 12 2 27-3 46 4 14 15 43 36 80 0 0 0 1 0 1-29-32-38-50-43-62-6 17-16 30-26 40 4 8 16 29 44 45 22 14 43 22 54 25 0-9-1-24 1-40 1-7 2-13 3-19 3-17 5-29 0-53z m-90 428c-276 0-500-224-500-500s224-500 500-500c276 0 500 224 500 500s-224 500-500 500z m58-786c-17-12-26-12-26-12h-28-1-28c0 0-9 0-26 12-18 12-15 35-15 35h62 15 62c0 0 3-23-15-35z m16 59h-147c-8 0-14 6-14 13 0 7 6 13 14 13h147c7 0 13-6 13-13 0-7-6-13-13-13z m92 239c0 0-47-68-70-89-4-3-5-8-5-13l-2-62c0-11-9-20-20-20h-60-17-60c-11 0-20 9-20 20l-2 62c0 5-2 9-5 13-8 10-26 31-42 51-4 3-7 7-11 11-5 7-10 14-15 22-3 4-5 7-5 9l0-1c-16 30-25 65-23 102 5 98 86 177 184 181 109 4 198-83 198-191 0-35-9-67-25-95z" horiz-adv-x="1000" />

<glyph glyph-name="c_194_smart_mode_circle_line" unicode="&#xe997;" d="M567 168h-133c-17 0-31 14-32 32l-1 60c0 2-1 3-2 4-9 11-26 31-41 49-4 4-8 8-11 12-5 6-10 14-15 22-4 5-6 8-7 11-16 31-24 67-22 103 5 101 89 183 190 187 54 1 105-18 144-56 39-37 61-88 61-142 0-30-7-59-20-86l-2-6c-1-3-5-14-74-94-1-1-1-2-2-4l-1-60c0-18-15-32-32-32z m-215 194c0 0 0-1 1-1l0-1c4-7 9-13 14-19 3-3 6-7 9-10l1-1c15-19 32-39 41-49 5-6 8-13 8-20l1-61c0-3 4-6 7-6h133c4 0 7 3 7 6l1 61c0 7 3 14 8 20 30 35 50 59 61 73l6 11c15 26 22 55 22 85 0 47-18 91-52 124-34 33-79 50-126 48-89-3-161-74-166-162-2-32 5-64 21-92l3-6z m232-229c0 7-6 13-13 13h-142c-7 0-13-6-13-13s6-12 13-12h142c7 0 13 5 13 12z m-74-35h-73c0 0-4-22 13-34 17-12 26-12 26-12h28-1 28c0 0 9 0 25 12 17 12 14 34 14 34h-74m106 373c-2 5-2 11-3 17-3 25-1 45 0 45l1 10-10-1c-1-1-31-6-67-28-26-16-40-36-46-46-35 29-78 33-81 33l-5 1-2-5c-1-2-23-53 9-115 29-59 82-63 98-63 0 0 11-31 12-34 3-4 11 1 11 1s-4 15-12 36c2 3 7 9 11 19 15 1 69 7 83 72 6 27 3 41 1 58z m-101-133c-14 33-33 73-57 95 0 1 0-1 0-1s18-24 46-99c-17 2-56 10-80 55-15 30-20 66-10 98 19-3 80-18 102-76 15-38 5-61-1-72z m86 79c-11-52-48-60-64-61 2 12 2 26-3 44 4 13 14 42 35 77 0 1 0 1 0 2-28-31-37-49-41-60-7 16-16 28-26 39 4 7 16 27 43 43 21 14 41 21 52 24 0-9 0-23 2-39 0-6 1-12 2-18 3-16 5-28 0-51z m-87-567c-276 0-500 224-500 500s224 500 500 500c276 0 500-224 500-500s-224-500-500-500z m0 921c-232 0-421-189-421-421s189-421 421-421c232 0 421 189 421 421s-189 421-421 421z" horiz-adv-x="1000" />

</font>
</defs>
</svg>
